<svg id="Show" xmlns="http://www.w3.org/2000/svg" width="14" height="11" viewBox="0 0 14 11">
  <path id="Fill_1" data-name="Fill 1" d="M7,11H6.993C4.1,11,1.5,9.016.041,5.693a.489.489,0,0,1,0-.393C1.5,1.981,4.1,0,6.993,0H7a6.589,6.589,0,0,1,4.016,1.406A9.8,9.8,0,0,1,13.959,5.3a.489.489,0,0,1,0,.393C12.5,9.016,9.895,11,7,11ZM7,2.833A2.7,2.7,0,0,0,4.268,5.5a2.729,2.729,0,0,0,5.456,0A2.7,2.7,0,0,0,7,2.833Z" fill="#bababa" opacity="0.4"/>
  <path id="Fill_4" data-name="Fill 4" d="M3.312,1.649A1.656,1.656,0,0,1,0,1.649a1.715,1.715,0,0,1,.033-.323H.066A1.358,1.358,0,0,0,1.427.02,1.39,1.39,0,0,1,1.659,0,1.653,1.653,0,0,1,3.312,1.649" transform="translate(5.145 3.791)" fill="#bababa"/>
</svg>
