<svg id="Iconly_Bulk_Camera" data-name="Iconly/Bulk/Camera" xmlns="http://www.w3.org/2000/svg" width="19.167" height="17.25" viewBox="0 0 19.167 17.25">
  <g id="Camera">
    <path id="Combined_Shape" data-name="Combined Shape" d="M1.1,6.652A3.767,3.767,0,0,1,0,3.992,3.709,3.709,0,0,1,1.093,1.339,3.763,3.763,0,1,1,1.1,6.652Zm1.007-4.3a2.237,2.237,0,0,0-.671,1.628v.009A2.322,2.322,0,0,0,3.767,6.318,2.342,2.342,0,0,0,6.1,3.992,2.332,2.332,0,0,0,2.109,2.355ZM8.28.871a.867.867,0,1,1,.863.862A.867.867,0,0,1,8.28.871Z" transform="translate(5.817 5.906)" fill="#bababa"/>
    <path id="Path" d="M14.8,3.1l-.1-.211c-.259-.546-.556-1.177-.738-1.541A2.34,2.34,0,0,0,11.835,0H7.322A2.327,2.327,0,0,0,5.2,1.35c-.192.383-.517,1.072-.786,1.637L4.36,3.1a.188.188,0,0,1-.182.115A4.18,4.18,0,0,0,0,7.39v5.686A4.18,4.18,0,0,0,4.178,17.25h10.81a4.186,4.186,0,0,0,4.178-4.174V7.39a4.186,4.186,0,0,0-4.178-4.174A.218.218,0,0,1,14.8,3.1Z" fill="#bababa" opacity="0.367"/>
  </g>
</svg>
