<svg xmlns="http://www.w3.org/2000/svg" width="16.868" height="17.815" viewBox="0 0 16.868 17.815">
  <g id="Iconly_Light_Setting" data-name="Iconly/Light/Setting" transform="translate(0.505 0.5)">
    <g id="Setting">
      <path id="Path_33946" d="M15.627,4.676l-.555-.945a1.723,1.723,0,0,0-2.326-.617h0a1.726,1.726,0,0,1-1.288.177,1.694,1.694,0,0,1-1.038-.77,1.579,1.579,0,0,1-.228-.8h0A1.656,1.656,0,0,0,9.71.507,1.722,1.722,0,0,0,8.487,0H7.369a1.714,1.714,0,0,0-1.2.491,1.649,1.649,0,0,0-.494,1.183h0A1.69,1.69,0,0,1,3.966,3.323,1.656,1.656,0,0,1,3.15,3.1h0a1.723,1.723,0,0,0-2.326.617l-.6.961a1.656,1.656,0,0,0,.62,2.282h0a1.658,1.658,0,0,1,0,2.9h0a1.648,1.648,0,0,0-.62,2.274h0l.563.953a1.7,1.7,0,0,0,1.026.8,1.735,1.735,0,0,0,1.3-.15h0a1.718,1.718,0,0,1,1.288-.17,1.685,1.685,0,0,1,1.03.778,1.579,1.579,0,0,1,.228.8h0a1.69,1.69,0,0,0,1.706,1.673H8.487a1.69,1.69,0,0,0,1.706-1.665h0a1.65,1.65,0,0,1,.5-1.186,1.714,1.714,0,0,1,1.208-.488,1.763,1.763,0,0,1,.816.224h0a1.724,1.724,0,0,0,2.326-.609h0l.588-.961a1.638,1.638,0,0,0,.173-1.268,1.67,1.67,0,0,0-.794-1.014h0a1.67,1.67,0,0,1-.794-1.014,1.638,1.638,0,0,1,.173-1.268,1.658,1.658,0,0,1,.62-.609h0a1.656,1.656,0,0,0,.62-2.274h0Z" transform="translate(0)" fill="none" stroke="#bababa" stroke-linecap="round" stroke-linejoin="round" stroke-width="1"/>
      <ellipse id="Ellipse_737" cx="2.35" cy="2.306" rx="2.35" ry="2.306" transform="translate(5.581 6.101)" fill="none" stroke="#bababa" stroke-linecap="round" stroke-linejoin="round" stroke-width="1"/>
    </g>
  </g>
</svg>
