<svg id="Group_91" data-name="Group 91" xmlns="http://www.w3.org/2000/svg" xmlns:xlink="http://www.w3.org/1999/xlink" width="1166.137" height="18" viewBox="0 0 1166.137 18">
  <defs>
    <clipPath id="clip-path">
      <rect width="1037.754" height="18" fill="none"/>
    </clipPath>
  </defs>
  <path id="Vector" d="M3.012,6.323V1.506A1.506,1.506,0,0,0,0,1.506V6.323a1.506,1.506,0,0,0,3.012,0Z" transform="translate(0 5.085)" fill="#3ad180"/>
  <path id="Vector-2" data-name="Vector" d="M0,1.506V8.018a1.506,1.506,0,0,0,3.012,0V1.506A1.506,1.506,0,0,0,0,1.506Z" transform="translate(24.072 4.238)" fill="#3ad180"/>
  <path id="Vector-3" data-name="Vector" d="M3.012,1.506A1.506,1.506,0,0,0,0,1.506V9.714a1.506,1.506,0,0,0,3.012,0Z" transform="translate(20.06 3.39)" fill="#3ad180"/>
  <path id="Vector-4" data-name="Vector" d="M3.012,1.506A1.506,1.506,0,0,0,0,1.506v9.9a1.506,1.506,0,0,0,3.012,0Z" transform="translate(4.012 2.542)" fill="#3ad180"/>
  <path id="Vector-5" data-name="Vector" d="M3.012,1.506A1.506,1.506,0,0,0,0,1.506V13.1a1.506,1.506,0,0,0,3.012,0Z" transform="translate(8.024 1.695)" fill="#3ad180"/>
  <path id="Vector-6" data-name="Vector" d="M3.012,1.506A1.506,1.506,0,1,0,0,1.506V14.8a1.506,1.506,0,1,0,3.012,0Z" transform="translate(16.048 0.848)" fill="#3ad180"/>
  <path id="Vector-7" data-name="Vector" d="M3.012,1.506A1.506,1.506,0,0,0,0,1.506V16.494a1.506,1.506,0,0,0,3.012,0Z" transform="translate(12.036)" fill="#3ad180"/>
  <path id="Vector-8" data-name="Vector" d="M3.012,6.323V1.506A1.506,1.506,0,0,0,0,1.506V6.323a1.506,1.506,0,0,0,3.012,0Z" transform="translate(28.084 5.085)" fill="#3ad180"/>
  <path id="Vector-9" data-name="Vector" d="M0,1.506V8.018a1.506,1.506,0,0,0,3.012,0V1.506A1.506,1.506,0,0,0,0,1.506Z" transform="translate(36.107 4.238)" fill="#3ad180"/>
  <path id="Vector-10" data-name="Vector" d="M3.012,1.506A1.506,1.506,0,0,0,0,1.506V9.714a1.506,1.506,0,0,0,3.012,0Z" transform="translate(32.096 3.39)" fill="#3ad180"/>
  <path id="Vector-11" data-name="Vector" d="M3.012,6.323V1.506A1.506,1.506,0,0,0,0,1.506V6.323a1.506,1.506,0,0,0,3.012,0Z" transform="translate(52.155 5.085)" fill="#3ad180"/>
  <path id="Vector-12" data-name="Vector" d="M0,1.506V8.018a1.506,1.506,0,0,0,3.012,0V1.506A1.506,1.506,0,0,0,0,1.506Z" transform="translate(76.228 4.238)" fill="#3ad180"/>
  <path id="Vector-13" data-name="Vector" d="M3.012,1.506A1.506,1.506,0,0,0,0,1.506V9.714a1.506,1.506,0,0,0,3.012,0Z" transform="translate(72.215 3.39)" fill="#3ad180"/>
  <path id="Vector-14" data-name="Vector" d="M3.012,1.506A1.506,1.506,0,0,0,0,1.506v9.9a1.506,1.506,0,0,0,3.012,0Z" transform="translate(56.167 2.542)" fill="#3ad180"/>
  <path id="Vector-15" data-name="Vector" d="M3.012,1.506A1.506,1.506,0,0,0,0,1.506V13.1a1.506,1.506,0,0,0,3.012,0Z" transform="translate(60.18 1.695)" fill="#3ad180"/>
  <path id="Vector-16" data-name="Vector" d="M3.012,1.506A1.506,1.506,0,1,0,0,1.506V14.8a1.506,1.506,0,1,0,3.012,0Z" transform="translate(68.203 0.848)" fill="#3ad180"/>
  <path id="Vector-17" data-name="Vector" d="M3.012,1.506A1.506,1.506,0,0,0,0,1.506V16.494a1.506,1.506,0,0,0,3.012,0Z" transform="translate(64.191)" fill="#3ad180"/>
  <path id="Vector-18" data-name="Vector" d="M3.012,6.323V1.506A1.506,1.506,0,0,0,0,1.506V6.323a1.506,1.506,0,0,0,3.012,0Z" transform="translate(80.239 5.085)" fill="#3ad180"/>
  <path id="Vector-19" data-name="Vector" d="M0,1.506V8.018a1.506,1.506,0,0,0,3.012,0V1.506A1.506,1.506,0,0,0,0,1.506Z" transform="translate(96.287 4.238)" fill="#3ad180"/>
  <path id="Vector-20" data-name="Vector" d="M3.012,1.506A1.506,1.506,0,0,0,0,1.506V9.714a1.506,1.506,0,0,0,3.012,0Z" transform="translate(92.275 3.39)" fill="#3ad180"/>
  <path id="Vector-21" data-name="Vector" d="M3.012,1.506A1.506,1.506,0,0,0,0,1.506v9.9a1.506,1.506,0,0,0,3.012,0Z" transform="translate(84.251 2.542)" fill="#3ad180"/>
  <path id="Vector-22" data-name="Vector" d="M3.012,1.506A1.506,1.506,0,0,0,0,1.506V13.1a1.506,1.506,0,0,0,3.012,0Z" transform="translate(88.263 1.695)" fill="#3ad180"/>
  <path id="Vector-23" data-name="Vector" d="M3.012,6.323V1.506A1.506,1.506,0,0,0,0,1.506V6.323a1.506,1.506,0,0,0,3.012,0Z" transform="translate(100.299 5.085)" fill="#3ad180"/>
  <path id="Vector-24" data-name="Vector" d="M0,1.506V8.018a1.506,1.506,0,0,0,3.012,0V1.506A1.506,1.506,0,0,0,0,1.506Z" transform="translate(108.323 4.238)" fill="#3ad180"/>
  <path id="Vector-25" data-name="Vector" d="M3.012,1.506A1.506,1.506,0,0,0,0,1.506V9.714a1.506,1.506,0,0,0,3.012,0Z" transform="translate(104.311 3.39)" fill="#3ad180"/>
  <path id="Vector-26" data-name="Vector" d="M3.012,6.323V1.506A1.506,1.506,0,0,0,0,1.506V6.323a1.506,1.506,0,0,0,3.012,0Z" transform="translate(112.335 5.085)" fill="#3ad180"/>
  <path id="Vector-27" data-name="Vector" d="M3.012,1.506A1.506,1.506,0,0,0,0,1.506v9.9a1.506,1.506,0,0,0,3.012,0Z" transform="translate(116.347 2.542)" fill="#3ad180"/>
  <path id="Vector-28" data-name="Vector" d="M0,1.506V8.018a1.506,1.506,0,0,0,3.012,0V1.506A1.506,1.506,0,0,0,0,1.506Z" transform="translate(48.144 4.238)" fill="#3ad180"/>
  <path id="Vector-29" data-name="Vector" d="M3.012,6.323V1.506A1.506,1.506,0,0,0,0,1.506V6.323a1.506,1.506,0,0,0,3.012,0Z" transform="translate(120.359 5.085)" fill="#3ad180"/>
  <path id="Vector-30" data-name="Vector" d="M3.012,1.506A1.506,1.506,0,0,0,0,1.506v9.9a1.506,1.506,0,0,0,3.012,0Z" transform="translate(124.371 2.542)" fill="#959a9c"/>
  <path id="Vector-31" data-name="Vector" d="M3.012,6.323V1.506A1.506,1.506,0,0,0,0,1.506V6.323a1.506,1.506,0,0,0,3.012,0Z" transform="translate(40.12 5.085)" fill="#3ad180"/>
  <path id="Vector-32" data-name="Vector" d="M3.012,1.506A1.506,1.506,0,0,0,0,1.506V9.714a1.506,1.506,0,0,0,3.012,0Z" transform="translate(44.132 3.39)" fill="#3ad180"/>
  <g id="Repeat_Grid_3" data-name="Repeat Grid 3" transform="translate(128.383)" clip-path="url(#clip-path)">
    <g id="Group_6" data-name="Group 6" transform="translate(-128.383)">
      <path id="Vector-33" data-name="Vector" d="M3.012,6.323V1.506A1.506,1.506,0,0,0,0,1.506V6.323a1.506,1.506,0,0,0,3.012,0Z" transform="translate(152.455 5.085)" fill="#959a9c"/>
      <path id="Vector-34" data-name="Vector" d="M0,1.506V8.018a1.506,1.506,0,0,0,3.012,0V1.506A1.506,1.506,0,0,0,0,1.506Z" transform="translate(176.526 4.238)" fill="#959a9c"/>
      <path id="Vector-35" data-name="Vector" d="M3.012,1.506A1.506,1.506,0,0,0,0,1.506V9.714a1.506,1.506,0,0,0,3.012,0Z" transform="translate(172.515 3.39)" fill="#959a9c"/>
      <path id="Vector-36" data-name="Vector" d="M3.012,1.506A1.506,1.506,0,0,0,0,1.506v9.9a1.506,1.506,0,0,0,3.012,0Z" transform="translate(156.467 2.542)" fill="#959a9c"/>
      <path id="Vector-37" data-name="Vector" d="M3.012,1.506A1.506,1.506,0,0,0,0,1.506V13.1a1.506,1.506,0,0,0,3.012,0Z" transform="translate(160.479 1.695)" fill="#959a9c"/>
      <path id="Vector-38" data-name="Vector" d="M3.012,1.506A1.506,1.506,0,1,0,0,1.506V14.8a1.506,1.506,0,1,0,3.012,0Z" transform="translate(168.502 0.848)" fill="#959a9c"/>
      <path id="Vector-39" data-name="Vector" d="M3.012,1.506A1.506,1.506,0,0,0,0,1.506V16.494a1.506,1.506,0,0,0,3.012,0Z" transform="translate(164.49)" fill="#959a9c"/>
      <path id="Vector-40" data-name="Vector" d="M3.012,6.323V1.506A1.506,1.506,0,0,0,0,1.506V6.323a1.506,1.506,0,0,0,3.012,0Z" transform="translate(180.538 5.085)" fill="#959a9c"/>
      <path id="Vector-41" data-name="Vector" d="M0,1.506V8.018a1.506,1.506,0,0,0,3.012,0V1.506A1.506,1.506,0,0,0,0,1.506Z" transform="translate(144.431 4.238)" fill="#959a9c"/>
      <path id="Vector-42" data-name="Vector" d="M3.012,1.506A1.506,1.506,0,0,0,0,1.506V9.714a1.506,1.506,0,0,0,3.012,0Z" transform="translate(140.419 3.39)" fill="#959a9c"/>
      <path id="Vector-43" data-name="Vector" d="M3.012,1.506A1.506,1.506,0,0,0,0,1.506V13.1a1.506,1.506,0,0,0,3.012,0Z" transform="translate(128.383 1.695)" fill="#959a9c"/>
      <path id="Vector-44" data-name="Vector" d="M3.012,1.506A1.506,1.506,0,1,0,0,1.506V14.8a1.506,1.506,0,1,0,3.012,0Z" transform="translate(136.407 0.848)" fill="#959a9c"/>
      <path id="Vector-45" data-name="Vector" d="M3.012,1.506A1.506,1.506,0,0,0,0,1.506V16.494a1.506,1.506,0,0,0,3.012,0Z" transform="translate(132.395)" fill="#959a9c"/>
      <path id="Vector-46" data-name="Vector" d="M0,1.506V8.018a1.506,1.506,0,0,0,3.012,0V1.506A1.506,1.506,0,0,0,0,1.506Z" transform="translate(148.442 4.238)" fill="#959a9c"/>
      <path id="Vector-47" data-name="Vector" d="M3.012-6.323v4.817A1.506,1.506,0,0,1,1.506,0,1.506,1.506,0,0,1,0-1.506V-6.323A1.506,1.506,0,0,1,1.506-7.829,1.506,1.506,0,0,1,3.012-6.323Z" transform="translate(327.981 5.085) rotate(180)" fill="#959a9c"/>
      <path id="Vector-48" data-name="Vector" d="M3.012-6.323v4.817A1.506,1.506,0,0,1,1.506,0,1.506,1.506,0,0,1,0-1.506V-6.323A1.506,1.506,0,0,1,1.506-7.829,1.506,1.506,0,0,1,3.012-6.323Z" transform="translate(380.137 5.085) rotate(180)" fill="#959a9c"/>
      <path id="Vector-49" data-name="Vector" d="M0-1.506V-8.018A1.506,1.506,0,0,1,1.506-9.524,1.506,1.506,0,0,1,3.012-8.018v6.512A1.506,1.506,0,0,1,1.506,0,1.506,1.506,0,0,1,0-1.506Z" transform="translate(303.909 4.238) rotate(180)" fill="#959a9c"/>
      <path id="Vector-50" data-name="Vector" d="M0-1.506V-8.018A1.506,1.506,0,0,1,1.506-9.524,1.506,1.506,0,0,1,3.012-8.018v6.512A1.506,1.506,0,0,1,1.506,0,1.506,1.506,0,0,1,0-1.506Z" transform="translate(356.064 4.238) rotate(180)" fill="#959a9c"/>
      <path id="Vector-51" data-name="Vector" d="M3.012-1.506A1.506,1.506,0,0,1,1.506,0,1.506,1.506,0,0,1,0-1.506V-9.714A1.506,1.506,0,0,1,1.506-11.22,1.506,1.506,0,0,1,3.012-9.714Z" transform="translate(307.921 3.39) rotate(180)" fill="#959a9c"/>
      <path id="Vector-52" data-name="Vector" d="M3.012-1.506A1.506,1.506,0,0,1,1.506,0,1.506,1.506,0,0,1,0-1.506V-9.714A1.506,1.506,0,0,1,1.506-11.22,1.506,1.506,0,0,1,3.012-9.714Z" transform="translate(360.077 3.39) rotate(180)" fill="#959a9c"/>
      <path id="Vector-53" data-name="Vector" d="M3.012-1.506A1.506,1.506,0,0,1,1.506,0,1.506,1.506,0,0,1,0-1.506v-9.9a1.506,1.506,0,0,1,1.506-1.506,1.506,1.506,0,0,1,1.506,1.506Z" transform="translate(323.969 2.542) rotate(180)" fill="#959a9c"/>
      <path id="Vector-54" data-name="Vector" d="M3.012-1.506A1.506,1.506,0,0,1,1.506,0,1.506,1.506,0,0,1,0-1.506v-9.9a1.506,1.506,0,0,1,1.506-1.506,1.506,1.506,0,0,1,1.506,1.506Z" transform="translate(376.125 2.542) rotate(180)" fill="#959a9c"/>
      <path id="Vector-55" data-name="Vector" d="M3.012-1.506A1.506,1.506,0,0,1,1.506,0,1.506,1.506,0,0,1,0-1.506V-13.1A1.506,1.506,0,0,1,1.506-14.61,1.506,1.506,0,0,1,3.012-13.1Z" transform="translate(319.957 1.695) rotate(180)" fill="#959a9c"/>
      <path id="Vector-56" data-name="Vector" d="M3.012-1.506A1.506,1.506,0,0,1,1.506,0,1.506,1.506,0,0,1,0-1.506V-13.1A1.506,1.506,0,0,1,1.506-14.61,1.506,1.506,0,0,1,3.012-13.1Z" transform="translate(372.112 1.695) rotate(180)" fill="#959a9c"/>
      <path id="Vector-57" data-name="Vector" d="M3.012-1.506A1.506,1.506,0,0,1,1.506,0,1.506,1.506,0,0,1,0-1.506V-14.8A1.506,1.506,0,0,1,1.506-16.3,1.506,1.506,0,0,1,3.012-14.8Z" transform="translate(311.933 0.848) rotate(180)" fill="#959a9c"/>
      <path id="Vector-58" data-name="Vector" d="M3.012-1.506A1.506,1.506,0,0,1,1.506,0,1.506,1.506,0,0,1,0-1.506V-14.8A1.506,1.506,0,0,1,1.506-16.3,1.506,1.506,0,0,1,3.012-14.8Z" transform="translate(364.089 0.848) rotate(180)" fill="#959a9c"/>
      <path id="Vector-59" data-name="Vector" d="M3.012-1.506A1.506,1.506,0,0,1,1.506,0,1.506,1.506,0,0,1,0-1.506V-16.494A1.506,1.506,0,0,1,1.506-18a1.506,1.506,0,0,1,1.506,1.506Z" transform="translate(315.945) rotate(180)" fill="#959a9c"/>
      <path id="Vector-60" data-name="Vector" d="M3.012-1.506A1.506,1.506,0,0,1,1.506,0,1.506,1.506,0,0,1,0-1.506V-16.494A1.506,1.506,0,0,1,1.506-18a1.506,1.506,0,0,1,1.506,1.506Z" transform="translate(368.101) rotate(180)" fill="#959a9c"/>
      <path id="Vector-61" data-name="Vector" d="M3.012-6.323v4.817A1.506,1.506,0,0,1,1.506,0,1.506,1.506,0,0,1,0-1.506V-6.323A1.506,1.506,0,0,1,1.506-7.829,1.506,1.506,0,0,1,3.012-6.323Z" transform="translate(299.897 5.085) rotate(180)" fill="#959a9c"/>
      <path id="Vector-62" data-name="Vector" d="M3.012-6.323v4.817A1.506,1.506,0,0,1,1.506,0,1.506,1.506,0,0,1,0-1.506V-6.323A1.506,1.506,0,0,1,1.506-7.829,1.506,1.506,0,0,1,3.012-6.323Z" transform="translate(352.053 5.085) rotate(180)" fill="#959a9c"/>
      <path id="Vector-63" data-name="Vector" d="M0-1.506V-8.018A1.506,1.506,0,0,1,1.506-9.524,1.506,1.506,0,0,1,3.012-8.018v6.512A1.506,1.506,0,0,1,1.506,0,1.506,1.506,0,0,1,0-1.506Z" transform="translate(291.873 4.238) rotate(180)" fill="#959a9c"/>
      <path id="Vector-64" data-name="Vector" d="M0-1.506V-8.018A1.506,1.506,0,0,1,1.506-9.524,1.506,1.506,0,0,1,3.012-8.018v6.512A1.506,1.506,0,0,1,1.506,0,1.506,1.506,0,0,1,0-1.506Z" transform="translate(344.029 4.238) rotate(180)" fill="#959a9c"/>
      <path id="Vector-65" data-name="Vector" d="M3.012-1.506A1.506,1.506,0,0,1,1.506,0,1.506,1.506,0,0,1,0-1.506V-9.714A1.506,1.506,0,0,1,1.506-11.22,1.506,1.506,0,0,1,3.012-9.714Z" transform="translate(295.885 3.39) rotate(180)" fill="#959a9c"/>
      <path id="Vector-66" data-name="Vector" d="M3.012-1.506A1.506,1.506,0,0,1,1.506,0,1.506,1.506,0,0,1,0-1.506V-9.714A1.506,1.506,0,0,1,1.506-11.22,1.506,1.506,0,0,1,3.012-9.714Z" transform="translate(348.041 3.39) rotate(180)" fill="#959a9c"/>
      <path id="Vector-67" data-name="Vector" d="M3.012-6.323v4.817A1.506,1.506,0,0,1,1.506,0,1.506,1.506,0,0,1,0-1.506V-6.323A1.506,1.506,0,0,1,1.506-7.829,1.506,1.506,0,0,1,3.012-6.323Z" transform="translate(275.825 5.085) rotate(180)" fill="#959a9c"/>
      <path id="Vector-68" data-name="Vector" d="M0-1.506V-8.018A1.506,1.506,0,0,1,1.506-9.524,1.506,1.506,0,0,1,3.012-8.018v6.512A1.506,1.506,0,0,1,1.506,0,1.506,1.506,0,0,1,0-1.506Z" transform="translate(251.754 4.238) rotate(180)" fill="#959a9c"/>
      <path id="Vector-69" data-name="Vector" d="M3.012-1.506A1.506,1.506,0,0,1,1.506,0,1.506,1.506,0,0,1,0-1.506V-9.714A1.506,1.506,0,0,1,1.506-11.22,1.506,1.506,0,0,1,3.012-9.714Z" transform="translate(255.766 3.39) rotate(180)" fill="#959a9c"/>
      <path id="Vector-70" data-name="Vector" d="M3.012-1.506A1.506,1.506,0,0,1,1.506,0,1.506,1.506,0,0,1,0-1.506v-9.9a1.506,1.506,0,0,1,1.506-1.506,1.506,1.506,0,0,1,1.506,1.506Z" transform="translate(271.813 2.542) rotate(180)" fill="#959a9c"/>
      <path id="Vector-71" data-name="Vector" d="M3.012-1.506A1.506,1.506,0,0,1,1.506,0,1.506,1.506,0,0,1,0-1.506V-13.1A1.506,1.506,0,0,1,1.506-14.61,1.506,1.506,0,0,1,3.012-13.1Z" transform="translate(267.802 1.695) rotate(180)" fill="#959a9c"/>
      <path id="Vector-72" data-name="Vector" d="M3.012-1.506A1.506,1.506,0,0,1,1.506,0,1.506,1.506,0,0,1,0-1.506V-14.8A1.506,1.506,0,0,1,1.506-16.3,1.506,1.506,0,0,1,3.012-14.8Z" transform="translate(259.777 0.848) rotate(180)" fill="#959a9c"/>
      <path id="Vector-73" data-name="Vector" d="M3.012-1.506A1.506,1.506,0,0,1,1.506,0,1.506,1.506,0,0,1,0-1.506V-16.494A1.506,1.506,0,0,1,1.506-18a1.506,1.506,0,0,1,1.506,1.506Z" transform="translate(263.79) rotate(180)" fill="#959a9c"/>
      <path id="Vector-74" data-name="Vector" d="M3.012-6.323v4.817A1.506,1.506,0,0,1,1.506,0,1.506,1.506,0,0,1,0-1.506V-6.323A1.506,1.506,0,0,1,1.506-7.829,1.506,1.506,0,0,1,3.012-6.323Z" transform="translate(247.742 5.085) rotate(180)" fill="#959a9c"/>
      <path id="Vector-75" data-name="Vector" d="M0-1.506V-8.018A1.506,1.506,0,0,1,1.506-9.524,1.506,1.506,0,0,1,3.012-8.018v6.512A1.506,1.506,0,0,1,1.506,0,1.506,1.506,0,0,1,0-1.506Z" transform="translate(231.694 4.238) rotate(180)" fill="#959a9c"/>
      <path id="Vector-76" data-name="Vector" d="M3.012-1.506A1.506,1.506,0,0,1,1.506,0,1.506,1.506,0,0,1,0-1.506V-9.714A1.506,1.506,0,0,1,1.506-11.22,1.506,1.506,0,0,1,3.012-9.714Z" transform="translate(235.706 3.39) rotate(180)" fill="#959a9c"/>
      <path id="Vector-77" data-name="Vector" d="M3.012-1.506A1.506,1.506,0,0,1,1.506,0,1.506,1.506,0,0,1,0-1.506v-9.9a1.506,1.506,0,0,1,1.506-1.506,1.506,1.506,0,0,1,1.506,1.506Z" transform="translate(243.729 2.542) rotate(180)" fill="#959a9c"/>
      <path id="Vector-78" data-name="Vector" d="M3.012-1.506A1.506,1.506,0,0,1,1.506,0,1.506,1.506,0,0,1,0-1.506V-13.1A1.506,1.506,0,0,1,1.506-14.61,1.506,1.506,0,0,1,3.012-13.1Z" transform="translate(239.718 1.695) rotate(180)" fill="#959a9c"/>
      <path id="Vector-79" data-name="Vector" d="M3.012-6.323v4.817A1.506,1.506,0,0,1,1.506,0,1.506,1.506,0,0,1,0-1.506V-6.323A1.506,1.506,0,0,1,1.506-7.829,1.506,1.506,0,0,1,3.012-6.323Z" transform="translate(227.682 5.085) rotate(180)" fill="#959a9c"/>
      <path id="Vector-80" data-name="Vector" d="M0-1.506V-8.018A1.506,1.506,0,0,1,1.506-9.524,1.506,1.506,0,0,1,3.012-8.018v6.512A1.506,1.506,0,0,1,1.506,0,1.506,1.506,0,0,1,0-1.506Z" transform="translate(219.658 4.238) rotate(180)" fill="#959a9c"/>
      <path id="Vector-81" data-name="Vector" d="M3.012-1.506A1.506,1.506,0,0,1,1.506,0,1.506,1.506,0,0,1,0-1.506V-9.714A1.506,1.506,0,0,1,1.506-11.22,1.506,1.506,0,0,1,3.012-9.714Z" transform="translate(223.67 3.39) rotate(180)" fill="#959a9c"/>
      <path id="Vector-82" data-name="Vector" d="M3.012-6.323v4.817A1.506,1.506,0,0,1,1.506,0,1.506,1.506,0,0,1,0-1.506V-6.323A1.506,1.506,0,0,1,1.506-7.829,1.506,1.506,0,0,1,3.012-6.323Z" transform="translate(215.646 5.085) rotate(180)" fill="#959a9c"/>
      <path id="Vector-83" data-name="Vector" d="M3.012-1.506A1.506,1.506,0,0,1,1.506,0,1.506,1.506,0,0,1,0-1.506v-9.9a1.506,1.506,0,0,1,1.506-1.506,1.506,1.506,0,0,1,1.506,1.506Z" transform="translate(211.634 2.542) rotate(180)" fill="#959a9c"/>
      <path id="Vector-84" data-name="Vector" d="M0-1.506V-8.018A1.506,1.506,0,0,1,1.506-9.524,1.506,1.506,0,0,1,3.012-8.018v6.512A1.506,1.506,0,0,1,1.506,0,1.506,1.506,0,0,1,0-1.506Z" transform="translate(279.837 4.238) rotate(180)" fill="#959a9c"/>
      <path id="Vector-85" data-name="Vector" d="M0-1.506V-8.018A1.506,1.506,0,0,1,1.506-9.524,1.506,1.506,0,0,1,3.012-8.018v6.512A1.506,1.506,0,0,1,1.506,0,1.506,1.506,0,0,1,0-1.506Z" transform="translate(331.993 4.238) rotate(180)" fill="#959a9c"/>
      <path id="Vector-86" data-name="Vector" d="M3.012-6.323v4.817A1.506,1.506,0,0,1,1.506,0,1.506,1.506,0,0,1,0-1.506V-6.323A1.506,1.506,0,0,1,1.506-7.829,1.506,1.506,0,0,1,3.012-6.323Z" transform="translate(207.622 5.085) rotate(180)" fill="#959a9c"/>
      <path id="Vector-87" data-name="Vector" d="M3.012-1.506A1.506,1.506,0,0,1,1.506,0,1.506,1.506,0,0,1,0-1.506V-9.714A1.506,1.506,0,0,1,1.506-11.22,1.506,1.506,0,0,1,3.012-9.714Z" transform="translate(187.563 3.39) rotate(180)" fill="#959a9c"/>
      <path id="Vector-88" data-name="Vector" d="M3.012-1.506A1.506,1.506,0,0,1,1.506,0,1.506,1.506,0,0,1,0-1.506v-9.9a1.506,1.506,0,0,1,1.506-1.506,1.506,1.506,0,0,1,1.506,1.506Z" transform="translate(203.61 2.542) rotate(180)" fill="#959a9c"/>
      <path id="Vector-89" data-name="Vector" d="M3.012-1.506A1.506,1.506,0,0,1,1.506,0,1.506,1.506,0,0,1,0-1.506V-13.1A1.506,1.506,0,0,1,1.506-14.61,1.506,1.506,0,0,1,3.012-13.1Z" transform="translate(199.598 1.695) rotate(180)" fill="#959a9c"/>
      <path id="Vector-90" data-name="Vector" d="M3.012-1.506A1.506,1.506,0,0,1,1.506,0,1.506,1.506,0,0,1,0-1.506V-14.8A1.506,1.506,0,0,1,1.506-16.3,1.506,1.506,0,0,1,3.012-14.8Z" transform="translate(191.574 0.848) rotate(180)" fill="#959a9c"/>
      <path id="Vector-91" data-name="Vector" d="M3.012-1.506A1.506,1.506,0,0,1,1.506,0,1.506,1.506,0,0,1,0-1.506V-16.494A1.506,1.506,0,0,1,1.506-18a1.506,1.506,0,0,1,1.506,1.506Z" transform="translate(195.586) rotate(180)" fill="#959a9c"/>
      <path id="Vector-92" data-name="Vector" d="M3.012-6.323v4.817A1.506,1.506,0,0,1,1.506,0,1.506,1.506,0,0,1,0-1.506V-6.323A1.506,1.506,0,0,1,1.506-7.829,1.506,1.506,0,0,1,3.012-6.323Z" transform="translate(287.861 5.085) rotate(180)" fill="#959a9c"/>
      <path id="Vector-93" data-name="Vector" d="M3.012-6.323v4.817A1.506,1.506,0,0,1,1.506,0,1.506,1.506,0,0,1,0-1.506V-6.323A1.506,1.506,0,0,1,1.506-7.829,1.506,1.506,0,0,1,3.012-6.323Z" transform="translate(340.017 5.085) rotate(180)" fill="#959a9c"/>
      <path id="Vector-94" data-name="Vector" d="M3.012-1.506A1.506,1.506,0,0,1,1.506,0,1.506,1.506,0,0,1,0-1.506V-9.714A1.506,1.506,0,0,1,1.506-11.22,1.506,1.506,0,0,1,3.012-9.714Z" transform="translate(283.85 3.39) rotate(180)" fill="#959a9c"/>
      <path id="Vector-95" data-name="Vector" d="M3.012-1.506A1.506,1.506,0,0,1,1.506,0,1.506,1.506,0,0,1,0-1.506V-9.714A1.506,1.506,0,0,1,1.506-11.22,1.506,1.506,0,0,1,3.012-9.714Z" transform="translate(336.005 3.39) rotate(180)" fill="#959a9c"/>
    </g>
    <g id="Group_6-2" data-name="Group 6" transform="translate(124.617)">
      <path id="Vector-96" data-name="Vector" d="M3.012,6.323V1.506A1.506,1.506,0,0,0,0,1.506V6.323a1.506,1.506,0,0,0,3.012,0Z" transform="translate(152.455 5.085)" fill="#959a9c"/>
      <path id="Vector-97" data-name="Vector" d="M0,1.506V8.018a1.506,1.506,0,0,0,3.012,0V1.506A1.506,1.506,0,0,0,0,1.506Z" transform="translate(176.526 4.238)" fill="#959a9c"/>
      <path id="Vector-98" data-name="Vector" d="M3.012,1.506A1.506,1.506,0,0,0,0,1.506V9.714a1.506,1.506,0,0,0,3.012,0Z" transform="translate(172.515 3.39)" fill="#959a9c"/>
      <path id="Vector-99" data-name="Vector" d="M3.012,1.506A1.506,1.506,0,0,0,0,1.506v9.9a1.506,1.506,0,0,0,3.012,0Z" transform="translate(156.467 2.542)" fill="#959a9c"/>
      <path id="Vector-100" data-name="Vector" d="M3.012,1.506A1.506,1.506,0,0,0,0,1.506V13.1a1.506,1.506,0,0,0,3.012,0Z" transform="translate(160.479 1.695)" fill="#959a9c"/>
      <path id="Vector-101" data-name="Vector" d="M3.012,1.506A1.506,1.506,0,1,0,0,1.506V14.8a1.506,1.506,0,1,0,3.012,0Z" transform="translate(168.502 0.848)" fill="#959a9c"/>
      <path id="Vector-102" data-name="Vector" d="M3.012,1.506A1.506,1.506,0,0,0,0,1.506V16.494a1.506,1.506,0,0,0,3.012,0Z" transform="translate(164.49)" fill="#959a9c"/>
      <path id="Vector-103" data-name="Vector" d="M3.012,6.323V1.506A1.506,1.506,0,0,0,0,1.506V6.323a1.506,1.506,0,0,0,3.012,0Z" transform="translate(180.538 5.085)" fill="#959a9c"/>
      <path id="Vector-104" data-name="Vector" d="M0,1.506V8.018a1.506,1.506,0,0,0,3.012,0V1.506A1.506,1.506,0,0,0,0,1.506Z" transform="translate(144.431 4.238)" fill="#959a9c"/>
      <path id="Vector-105" data-name="Vector" d="M3.012,1.506A1.506,1.506,0,0,0,0,1.506V9.714a1.506,1.506,0,0,0,3.012,0Z" transform="translate(140.419 3.39)" fill="#959a9c"/>
      <path id="Vector-106" data-name="Vector" d="M3.012,1.506A1.506,1.506,0,0,0,0,1.506V13.1a1.506,1.506,0,0,0,3.012,0Z" transform="translate(128.383 1.695)" fill="#959a9c"/>
      <path id="Vector-107" data-name="Vector" d="M3.012,1.506A1.506,1.506,0,1,0,0,1.506V14.8a1.506,1.506,0,1,0,3.012,0Z" transform="translate(136.407 0.848)" fill="#959a9c"/>
      <path id="Vector-108" data-name="Vector" d="M3.012,1.506A1.506,1.506,0,0,0,0,1.506V16.494a1.506,1.506,0,0,0,3.012,0Z" transform="translate(132.395)" fill="#959a9c"/>
      <path id="Vector-109" data-name="Vector" d="M0,1.506V8.018a1.506,1.506,0,0,0,3.012,0V1.506A1.506,1.506,0,0,0,0,1.506Z" transform="translate(148.442 4.238)" fill="#959a9c"/>
      <path id="Vector-110" data-name="Vector" d="M3.012-6.323v4.817A1.506,1.506,0,0,1,1.506,0,1.506,1.506,0,0,1,0-1.506V-6.323A1.506,1.506,0,0,1,1.506-7.829,1.506,1.506,0,0,1,3.012-6.323Z" transform="translate(327.981 5.085) rotate(180)" fill="#959a9c"/>
      <path id="Vector-111" data-name="Vector" d="M3.012-6.323v4.817A1.506,1.506,0,0,1,1.506,0,1.506,1.506,0,0,1,0-1.506V-6.323A1.506,1.506,0,0,1,1.506-7.829,1.506,1.506,0,0,1,3.012-6.323Z" transform="translate(380.137 5.085) rotate(180)" fill="#959a9c"/>
      <path id="Vector-112" data-name="Vector" d="M0-1.506V-8.018A1.506,1.506,0,0,1,1.506-9.524,1.506,1.506,0,0,1,3.012-8.018v6.512A1.506,1.506,0,0,1,1.506,0,1.506,1.506,0,0,1,0-1.506Z" transform="translate(303.909 4.238) rotate(180)" fill="#959a9c"/>
      <path id="Vector-113" data-name="Vector" d="M0-1.506V-8.018A1.506,1.506,0,0,1,1.506-9.524,1.506,1.506,0,0,1,3.012-8.018v6.512A1.506,1.506,0,0,1,1.506,0,1.506,1.506,0,0,1,0-1.506Z" transform="translate(356.064 4.238) rotate(180)" fill="#959a9c"/>
      <path id="Vector-114" data-name="Vector" d="M3.012-1.506A1.506,1.506,0,0,1,1.506,0,1.506,1.506,0,0,1,0-1.506V-9.714A1.506,1.506,0,0,1,1.506-11.22,1.506,1.506,0,0,1,3.012-9.714Z" transform="translate(307.921 3.39) rotate(180)" fill="#959a9c"/>
      <path id="Vector-115" data-name="Vector" d="M3.012-1.506A1.506,1.506,0,0,1,1.506,0,1.506,1.506,0,0,1,0-1.506V-9.714A1.506,1.506,0,0,1,1.506-11.22,1.506,1.506,0,0,1,3.012-9.714Z" transform="translate(360.077 3.39) rotate(180)" fill="#959a9c"/>
      <path id="Vector-116" data-name="Vector" d="M3.012-1.506A1.506,1.506,0,0,1,1.506,0,1.506,1.506,0,0,1,0-1.506v-9.9a1.506,1.506,0,0,1,1.506-1.506,1.506,1.506,0,0,1,1.506,1.506Z" transform="translate(323.969 2.542) rotate(180)" fill="#959a9c"/>
      <path id="Vector-117" data-name="Vector" d="M3.012-1.506A1.506,1.506,0,0,1,1.506,0,1.506,1.506,0,0,1,0-1.506v-9.9a1.506,1.506,0,0,1,1.506-1.506,1.506,1.506,0,0,1,1.506,1.506Z" transform="translate(376.125 2.542) rotate(180)" fill="#959a9c"/>
      <path id="Vector-118" data-name="Vector" d="M3.012-1.506A1.506,1.506,0,0,1,1.506,0,1.506,1.506,0,0,1,0-1.506V-13.1A1.506,1.506,0,0,1,1.506-14.61,1.506,1.506,0,0,1,3.012-13.1Z" transform="translate(319.957 1.695) rotate(180)" fill="#959a9c"/>
      <path id="Vector-119" data-name="Vector" d="M3.012-1.506A1.506,1.506,0,0,1,1.506,0,1.506,1.506,0,0,1,0-1.506V-13.1A1.506,1.506,0,0,1,1.506-14.61,1.506,1.506,0,0,1,3.012-13.1Z" transform="translate(372.112 1.695) rotate(180)" fill="#959a9c"/>
      <path id="Vector-120" data-name="Vector" d="M3.012-1.506A1.506,1.506,0,0,1,1.506,0,1.506,1.506,0,0,1,0-1.506V-14.8A1.506,1.506,0,0,1,1.506-16.3,1.506,1.506,0,0,1,3.012-14.8Z" transform="translate(311.933 0.848) rotate(180)" fill="#959a9c"/>
      <path id="Vector-121" data-name="Vector" d="M3.012-1.506A1.506,1.506,0,0,1,1.506,0,1.506,1.506,0,0,1,0-1.506V-14.8A1.506,1.506,0,0,1,1.506-16.3,1.506,1.506,0,0,1,3.012-14.8Z" transform="translate(364.089 0.848) rotate(180)" fill="#959a9c"/>
      <path id="Vector-122" data-name="Vector" d="M3.012-1.506A1.506,1.506,0,0,1,1.506,0,1.506,1.506,0,0,1,0-1.506V-16.494A1.506,1.506,0,0,1,1.506-18a1.506,1.506,0,0,1,1.506,1.506Z" transform="translate(315.945) rotate(180)" fill="#959a9c"/>
      <path id="Vector-123" data-name="Vector" d="M3.012-1.506A1.506,1.506,0,0,1,1.506,0,1.506,1.506,0,0,1,0-1.506V-16.494A1.506,1.506,0,0,1,1.506-18a1.506,1.506,0,0,1,1.506,1.506Z" transform="translate(368.101) rotate(180)" fill="#959a9c"/>
      <path id="Vector-124" data-name="Vector" d="M3.012-6.323v4.817A1.506,1.506,0,0,1,1.506,0,1.506,1.506,0,0,1,0-1.506V-6.323A1.506,1.506,0,0,1,1.506-7.829,1.506,1.506,0,0,1,3.012-6.323Z" transform="translate(299.897 5.085) rotate(180)" fill="#959a9c"/>
      <path id="Vector-125" data-name="Vector" d="M3.012-6.323v4.817A1.506,1.506,0,0,1,1.506,0,1.506,1.506,0,0,1,0-1.506V-6.323A1.506,1.506,0,0,1,1.506-7.829,1.506,1.506,0,0,1,3.012-6.323Z" transform="translate(352.053 5.085) rotate(180)" fill="#959a9c"/>
      <path id="Vector-126" data-name="Vector" d="M0-1.506V-8.018A1.506,1.506,0,0,1,1.506-9.524,1.506,1.506,0,0,1,3.012-8.018v6.512A1.506,1.506,0,0,1,1.506,0,1.506,1.506,0,0,1,0-1.506Z" transform="translate(291.873 4.238) rotate(180)" fill="#959a9c"/>
      <path id="Vector-127" data-name="Vector" d="M0-1.506V-8.018A1.506,1.506,0,0,1,1.506-9.524,1.506,1.506,0,0,1,3.012-8.018v6.512A1.506,1.506,0,0,1,1.506,0,1.506,1.506,0,0,1,0-1.506Z" transform="translate(344.029 4.238) rotate(180)" fill="#959a9c"/>
      <path id="Vector-128" data-name="Vector" d="M3.012-1.506A1.506,1.506,0,0,1,1.506,0,1.506,1.506,0,0,1,0-1.506V-9.714A1.506,1.506,0,0,1,1.506-11.22,1.506,1.506,0,0,1,3.012-9.714Z" transform="translate(295.885 3.39) rotate(180)" fill="#959a9c"/>
      <path id="Vector-129" data-name="Vector" d="M3.012-1.506A1.506,1.506,0,0,1,1.506,0,1.506,1.506,0,0,1,0-1.506V-9.714A1.506,1.506,0,0,1,1.506-11.22,1.506,1.506,0,0,1,3.012-9.714Z" transform="translate(348.041 3.39) rotate(180)" fill="#959a9c"/>
      <path id="Vector-130" data-name="Vector" d="M3.012-6.323v4.817A1.506,1.506,0,0,1,1.506,0,1.506,1.506,0,0,1,0-1.506V-6.323A1.506,1.506,0,0,1,1.506-7.829,1.506,1.506,0,0,1,3.012-6.323Z" transform="translate(275.825 5.085) rotate(180)" fill="#959a9c"/>
      <path id="Vector-131" data-name="Vector" d="M0-1.506V-8.018A1.506,1.506,0,0,1,1.506-9.524,1.506,1.506,0,0,1,3.012-8.018v6.512A1.506,1.506,0,0,1,1.506,0,1.506,1.506,0,0,1,0-1.506Z" transform="translate(251.754 4.238) rotate(180)" fill="#959a9c"/>
      <path id="Vector-132" data-name="Vector" d="M3.012-1.506A1.506,1.506,0,0,1,1.506,0,1.506,1.506,0,0,1,0-1.506V-9.714A1.506,1.506,0,0,1,1.506-11.22,1.506,1.506,0,0,1,3.012-9.714Z" transform="translate(255.766 3.39) rotate(180)" fill="#959a9c"/>
      <path id="Vector-133" data-name="Vector" d="M3.012-1.506A1.506,1.506,0,0,1,1.506,0,1.506,1.506,0,0,1,0-1.506v-9.9a1.506,1.506,0,0,1,1.506-1.506,1.506,1.506,0,0,1,1.506,1.506Z" transform="translate(271.813 2.542) rotate(180)" fill="#959a9c"/>
      <path id="Vector-134" data-name="Vector" d="M3.012-1.506A1.506,1.506,0,0,1,1.506,0,1.506,1.506,0,0,1,0-1.506V-13.1A1.506,1.506,0,0,1,1.506-14.61,1.506,1.506,0,0,1,3.012-13.1Z" transform="translate(267.802 1.695) rotate(180)" fill="#959a9c"/>
      <path id="Vector-135" data-name="Vector" d="M3.012-1.506A1.506,1.506,0,0,1,1.506,0,1.506,1.506,0,0,1,0-1.506V-14.8A1.506,1.506,0,0,1,1.506-16.3,1.506,1.506,0,0,1,3.012-14.8Z" transform="translate(259.777 0.848) rotate(180)" fill="#959a9c"/>
      <path id="Vector-136" data-name="Vector" d="M3.012-1.506A1.506,1.506,0,0,1,1.506,0,1.506,1.506,0,0,1,0-1.506V-16.494A1.506,1.506,0,0,1,1.506-18a1.506,1.506,0,0,1,1.506,1.506Z" transform="translate(263.79) rotate(180)" fill="#959a9c"/>
      <path id="Vector-137" data-name="Vector" d="M3.012-6.323v4.817A1.506,1.506,0,0,1,1.506,0,1.506,1.506,0,0,1,0-1.506V-6.323A1.506,1.506,0,0,1,1.506-7.829,1.506,1.506,0,0,1,3.012-6.323Z" transform="translate(247.742 5.085) rotate(180)" fill="#959a9c"/>
      <path id="Vector-138" data-name="Vector" d="M0-1.506V-8.018A1.506,1.506,0,0,1,1.506-9.524,1.506,1.506,0,0,1,3.012-8.018v6.512A1.506,1.506,0,0,1,1.506,0,1.506,1.506,0,0,1,0-1.506Z" transform="translate(231.694 4.238) rotate(180)" fill="#959a9c"/>
      <path id="Vector-139" data-name="Vector" d="M3.012-1.506A1.506,1.506,0,0,1,1.506,0,1.506,1.506,0,0,1,0-1.506V-9.714A1.506,1.506,0,0,1,1.506-11.22,1.506,1.506,0,0,1,3.012-9.714Z" transform="translate(235.706 3.39) rotate(180)" fill="#959a9c"/>
      <path id="Vector-140" data-name="Vector" d="M3.012-1.506A1.506,1.506,0,0,1,1.506,0,1.506,1.506,0,0,1,0-1.506v-9.9a1.506,1.506,0,0,1,1.506-1.506,1.506,1.506,0,0,1,1.506,1.506Z" transform="translate(243.729 2.542) rotate(180)" fill="#959a9c"/>
      <path id="Vector-141" data-name="Vector" d="M3.012-1.506A1.506,1.506,0,0,1,1.506,0,1.506,1.506,0,0,1,0-1.506V-13.1A1.506,1.506,0,0,1,1.506-14.61,1.506,1.506,0,0,1,3.012-13.1Z" transform="translate(239.718 1.695) rotate(180)" fill="#959a9c"/>
      <path id="Vector-142" data-name="Vector" d="M3.012-6.323v4.817A1.506,1.506,0,0,1,1.506,0,1.506,1.506,0,0,1,0-1.506V-6.323A1.506,1.506,0,0,1,1.506-7.829,1.506,1.506,0,0,1,3.012-6.323Z" transform="translate(227.682 5.085) rotate(180)" fill="#959a9c"/>
      <path id="Vector-143" data-name="Vector" d="M0-1.506V-8.018A1.506,1.506,0,0,1,1.506-9.524,1.506,1.506,0,0,1,3.012-8.018v6.512A1.506,1.506,0,0,1,1.506,0,1.506,1.506,0,0,1,0-1.506Z" transform="translate(219.658 4.238) rotate(180)" fill="#959a9c"/>
      <path id="Vector-144" data-name="Vector" d="M3.012-1.506A1.506,1.506,0,0,1,1.506,0,1.506,1.506,0,0,1,0-1.506V-9.714A1.506,1.506,0,0,1,1.506-11.22,1.506,1.506,0,0,1,3.012-9.714Z" transform="translate(223.67 3.39) rotate(180)" fill="#959a9c"/>
      <path id="Vector-145" data-name="Vector" d="M3.012-6.323v4.817A1.506,1.506,0,0,1,1.506,0,1.506,1.506,0,0,1,0-1.506V-6.323A1.506,1.506,0,0,1,1.506-7.829,1.506,1.506,0,0,1,3.012-6.323Z" transform="translate(215.646 5.085) rotate(180)" fill="#959a9c"/>
      <path id="Vector-146" data-name="Vector" d="M3.012-1.506A1.506,1.506,0,0,1,1.506,0,1.506,1.506,0,0,1,0-1.506v-9.9a1.506,1.506,0,0,1,1.506-1.506,1.506,1.506,0,0,1,1.506,1.506Z" transform="translate(211.634 2.542) rotate(180)" fill="#959a9c"/>
      <path id="Vector-147" data-name="Vector" d="M0-1.506V-8.018A1.506,1.506,0,0,1,1.506-9.524,1.506,1.506,0,0,1,3.012-8.018v6.512A1.506,1.506,0,0,1,1.506,0,1.506,1.506,0,0,1,0-1.506Z" transform="translate(279.837 4.238) rotate(180)" fill="#959a9c"/>
      <path id="Vector-148" data-name="Vector" d="M0-1.506V-8.018A1.506,1.506,0,0,1,1.506-9.524,1.506,1.506,0,0,1,3.012-8.018v6.512A1.506,1.506,0,0,1,1.506,0,1.506,1.506,0,0,1,0-1.506Z" transform="translate(331.993 4.238) rotate(180)" fill="#959a9c"/>
      <path id="Vector-149" data-name="Vector" d="M3.012-6.323v4.817A1.506,1.506,0,0,1,1.506,0,1.506,1.506,0,0,1,0-1.506V-6.323A1.506,1.506,0,0,1,1.506-7.829,1.506,1.506,0,0,1,3.012-6.323Z" transform="translate(207.622 5.085) rotate(180)" fill="#959a9c"/>
      <path id="Vector-150" data-name="Vector" d="M3.012-1.506A1.506,1.506,0,0,1,1.506,0,1.506,1.506,0,0,1,0-1.506V-9.714A1.506,1.506,0,0,1,1.506-11.22,1.506,1.506,0,0,1,3.012-9.714Z" transform="translate(187.563 3.39) rotate(180)" fill="#959a9c"/>
      <path id="Vector-151" data-name="Vector" d="M3.012-1.506A1.506,1.506,0,0,1,1.506,0,1.506,1.506,0,0,1,0-1.506v-9.9a1.506,1.506,0,0,1,1.506-1.506,1.506,1.506,0,0,1,1.506,1.506Z" transform="translate(203.61 2.542) rotate(180)" fill="#959a9c"/>
      <path id="Vector-152" data-name="Vector" d="M3.012-1.506A1.506,1.506,0,0,1,1.506,0,1.506,1.506,0,0,1,0-1.506V-13.1A1.506,1.506,0,0,1,1.506-14.61,1.506,1.506,0,0,1,3.012-13.1Z" transform="translate(199.598 1.695) rotate(180)" fill="#959a9c"/>
      <path id="Vector-153" data-name="Vector" d="M3.012-1.506A1.506,1.506,0,0,1,1.506,0,1.506,1.506,0,0,1,0-1.506V-14.8A1.506,1.506,0,0,1,1.506-16.3,1.506,1.506,0,0,1,3.012-14.8Z" transform="translate(191.574 0.848) rotate(180)" fill="#959a9c"/>
      <path id="Vector-154" data-name="Vector" d="M3.012-1.506A1.506,1.506,0,0,1,1.506,0,1.506,1.506,0,0,1,0-1.506V-16.494A1.506,1.506,0,0,1,1.506-18a1.506,1.506,0,0,1,1.506,1.506Z" transform="translate(195.586) rotate(180)" fill="#959a9c"/>
      <path id="Vector-155" data-name="Vector" d="M3.012-6.323v4.817A1.506,1.506,0,0,1,1.506,0,1.506,1.506,0,0,1,0-1.506V-6.323A1.506,1.506,0,0,1,1.506-7.829,1.506,1.506,0,0,1,3.012-6.323Z" transform="translate(287.861 5.085) rotate(180)" fill="#959a9c"/>
      <path id="Vector-156" data-name="Vector" d="M3.012-6.323v4.817A1.506,1.506,0,0,1,1.506,0,1.506,1.506,0,0,1,0-1.506V-6.323A1.506,1.506,0,0,1,1.506-7.829,1.506,1.506,0,0,1,3.012-6.323Z" transform="translate(340.017 5.085) rotate(180)" fill="#959a9c"/>
      <path id="Vector-157" data-name="Vector" d="M3.012-1.506A1.506,1.506,0,0,1,1.506,0,1.506,1.506,0,0,1,0-1.506V-9.714A1.506,1.506,0,0,1,1.506-11.22,1.506,1.506,0,0,1,3.012-9.714Z" transform="translate(283.85 3.39) rotate(180)" fill="#959a9c"/>
      <path id="Vector-158" data-name="Vector" d="M3.012-1.506A1.506,1.506,0,0,1,1.506,0,1.506,1.506,0,0,1,0-1.506V-9.714A1.506,1.506,0,0,1,1.506-11.22,1.506,1.506,0,0,1,3.012-9.714Z" transform="translate(336.005 3.39) rotate(180)" fill="#959a9c"/>
    </g>
    <g id="Group_6-3" data-name="Group 6" transform="translate(377.617)">
      <path id="Vector-159" data-name="Vector" d="M3.012,6.323V1.506A1.506,1.506,0,0,0,0,1.506V6.323a1.506,1.506,0,0,0,3.012,0Z" transform="translate(152.455 5.085)" fill="#959a9c"/>
      <path id="Vector-160" data-name="Vector" d="M0,1.506V8.018a1.506,1.506,0,0,0,3.012,0V1.506A1.506,1.506,0,0,0,0,1.506Z" transform="translate(176.526 4.238)" fill="#959a9c"/>
      <path id="Vector-161" data-name="Vector" d="M3.012,1.506A1.506,1.506,0,0,0,0,1.506V9.714a1.506,1.506,0,0,0,3.012,0Z" transform="translate(172.515 3.39)" fill="#959a9c"/>
      <path id="Vector-162" data-name="Vector" d="M3.012,1.506A1.506,1.506,0,0,0,0,1.506v9.9a1.506,1.506,0,0,0,3.012,0Z" transform="translate(156.467 2.542)" fill="#959a9c"/>
      <path id="Vector-163" data-name="Vector" d="M3.012,1.506A1.506,1.506,0,0,0,0,1.506V13.1a1.506,1.506,0,0,0,3.012,0Z" transform="translate(160.479 1.695)" fill="#959a9c"/>
      <path id="Vector-164" data-name="Vector" d="M3.012,1.506A1.506,1.506,0,1,0,0,1.506V14.8a1.506,1.506,0,1,0,3.012,0Z" transform="translate(168.502 0.848)" fill="#959a9c"/>
      <path id="Vector-165" data-name="Vector" d="M3.012,1.506A1.506,1.506,0,0,0,0,1.506V16.494a1.506,1.506,0,0,0,3.012,0Z" transform="translate(164.49)" fill="#959a9c"/>
      <path id="Vector-166" data-name="Vector" d="M3.012,6.323V1.506A1.506,1.506,0,0,0,0,1.506V6.323a1.506,1.506,0,0,0,3.012,0Z" transform="translate(180.538 5.085)" fill="#959a9c"/>
      <path id="Vector-167" data-name="Vector" d="M0,1.506V8.018a1.506,1.506,0,0,0,3.012,0V1.506A1.506,1.506,0,0,0,0,1.506Z" transform="translate(144.431 4.238)" fill="#959a9c"/>
      <path id="Vector-168" data-name="Vector" d="M3.012,1.506A1.506,1.506,0,0,0,0,1.506V9.714a1.506,1.506,0,0,0,3.012,0Z" transform="translate(140.419 3.39)" fill="#959a9c"/>
      <path id="Vector-169" data-name="Vector" d="M3.012,1.506A1.506,1.506,0,0,0,0,1.506V13.1a1.506,1.506,0,0,0,3.012,0Z" transform="translate(128.383 1.695)" fill="#959a9c"/>
      <path id="Vector-170" data-name="Vector" d="M3.012,1.506A1.506,1.506,0,1,0,0,1.506V14.8a1.506,1.506,0,1,0,3.012,0Z" transform="translate(136.407 0.848)" fill="#959a9c"/>
      <path id="Vector-171" data-name="Vector" d="M3.012,1.506A1.506,1.506,0,0,0,0,1.506V16.494a1.506,1.506,0,0,0,3.012,0Z" transform="translate(132.395)" fill="#959a9c"/>
      <path id="Vector-172" data-name="Vector" d="M0,1.506V8.018a1.506,1.506,0,0,0,3.012,0V1.506A1.506,1.506,0,0,0,0,1.506Z" transform="translate(148.442 4.238)" fill="#959a9c"/>
      <path id="Vector-173" data-name="Vector" d="M3.012-6.323v4.817A1.506,1.506,0,0,1,1.506,0,1.506,1.506,0,0,1,0-1.506V-6.323A1.506,1.506,0,0,1,1.506-7.829,1.506,1.506,0,0,1,3.012-6.323Z" transform="translate(327.981 5.085) rotate(180)" fill="#959a9c"/>
      <path id="Vector-174" data-name="Vector" d="M3.012-6.323v4.817A1.506,1.506,0,0,1,1.506,0,1.506,1.506,0,0,1,0-1.506V-6.323A1.506,1.506,0,0,1,1.506-7.829,1.506,1.506,0,0,1,3.012-6.323Z" transform="translate(380.137 5.085) rotate(180)" fill="#959a9c"/>
      <path id="Vector-175" data-name="Vector" d="M0-1.506V-8.018A1.506,1.506,0,0,1,1.506-9.524,1.506,1.506,0,0,1,3.012-8.018v6.512A1.506,1.506,0,0,1,1.506,0,1.506,1.506,0,0,1,0-1.506Z" transform="translate(303.909 4.238) rotate(180)" fill="#959a9c"/>
      <path id="Vector-176" data-name="Vector" d="M0-1.506V-8.018A1.506,1.506,0,0,1,1.506-9.524,1.506,1.506,0,0,1,3.012-8.018v6.512A1.506,1.506,0,0,1,1.506,0,1.506,1.506,0,0,1,0-1.506Z" transform="translate(356.064 4.238) rotate(180)" fill="#959a9c"/>
      <path id="Vector-177" data-name="Vector" d="M3.012-1.506A1.506,1.506,0,0,1,1.506,0,1.506,1.506,0,0,1,0-1.506V-9.714A1.506,1.506,0,0,1,1.506-11.22,1.506,1.506,0,0,1,3.012-9.714Z" transform="translate(307.921 3.39) rotate(180)" fill="#959a9c"/>
      <path id="Vector-178" data-name="Vector" d="M3.012-1.506A1.506,1.506,0,0,1,1.506,0,1.506,1.506,0,0,1,0-1.506V-9.714A1.506,1.506,0,0,1,1.506-11.22,1.506,1.506,0,0,1,3.012-9.714Z" transform="translate(360.077 3.39) rotate(180)" fill="#959a9c"/>
      <path id="Vector-179" data-name="Vector" d="M3.012-1.506A1.506,1.506,0,0,1,1.506,0,1.506,1.506,0,0,1,0-1.506v-9.9a1.506,1.506,0,0,1,1.506-1.506,1.506,1.506,0,0,1,1.506,1.506Z" transform="translate(323.969 2.542) rotate(180)" fill="#959a9c"/>
      <path id="Vector-180" data-name="Vector" d="M3.012-1.506A1.506,1.506,0,0,1,1.506,0,1.506,1.506,0,0,1,0-1.506v-9.9a1.506,1.506,0,0,1,1.506-1.506,1.506,1.506,0,0,1,1.506,1.506Z" transform="translate(376.125 2.542) rotate(180)" fill="#959a9c"/>
      <path id="Vector-181" data-name="Vector" d="M3.012-1.506A1.506,1.506,0,0,1,1.506,0,1.506,1.506,0,0,1,0-1.506V-13.1A1.506,1.506,0,0,1,1.506-14.61,1.506,1.506,0,0,1,3.012-13.1Z" transform="translate(319.957 1.695) rotate(180)" fill="#959a9c"/>
      <path id="Vector-182" data-name="Vector" d="M3.012-1.506A1.506,1.506,0,0,1,1.506,0,1.506,1.506,0,0,1,0-1.506V-13.1A1.506,1.506,0,0,1,1.506-14.61,1.506,1.506,0,0,1,3.012-13.1Z" transform="translate(372.112 1.695) rotate(180)" fill="#959a9c"/>
      <path id="Vector-183" data-name="Vector" d="M3.012-1.506A1.506,1.506,0,0,1,1.506,0,1.506,1.506,0,0,1,0-1.506V-14.8A1.506,1.506,0,0,1,1.506-16.3,1.506,1.506,0,0,1,3.012-14.8Z" transform="translate(311.933 0.848) rotate(180)" fill="#959a9c"/>
      <path id="Vector-184" data-name="Vector" d="M3.012-1.506A1.506,1.506,0,0,1,1.506,0,1.506,1.506,0,0,1,0-1.506V-14.8A1.506,1.506,0,0,1,1.506-16.3,1.506,1.506,0,0,1,3.012-14.8Z" transform="translate(364.089 0.848) rotate(180)" fill="#959a9c"/>
      <path id="Vector-185" data-name="Vector" d="M3.012-1.506A1.506,1.506,0,0,1,1.506,0,1.506,1.506,0,0,1,0-1.506V-16.494A1.506,1.506,0,0,1,1.506-18a1.506,1.506,0,0,1,1.506,1.506Z" transform="translate(315.945) rotate(180)" fill="#959a9c"/>
      <path id="Vector-186" data-name="Vector" d="M3.012-1.506A1.506,1.506,0,0,1,1.506,0,1.506,1.506,0,0,1,0-1.506V-16.494A1.506,1.506,0,0,1,1.506-18a1.506,1.506,0,0,1,1.506,1.506Z" transform="translate(368.101) rotate(180)" fill="#959a9c"/>
      <path id="Vector-187" data-name="Vector" d="M3.012-6.323v4.817A1.506,1.506,0,0,1,1.506,0,1.506,1.506,0,0,1,0-1.506V-6.323A1.506,1.506,0,0,1,1.506-7.829,1.506,1.506,0,0,1,3.012-6.323Z" transform="translate(299.897 5.085) rotate(180)" fill="#959a9c"/>
      <path id="Vector-188" data-name="Vector" d="M3.012-6.323v4.817A1.506,1.506,0,0,1,1.506,0,1.506,1.506,0,0,1,0-1.506V-6.323A1.506,1.506,0,0,1,1.506-7.829,1.506,1.506,0,0,1,3.012-6.323Z" transform="translate(352.053 5.085) rotate(180)" fill="#959a9c"/>
      <path id="Vector-189" data-name="Vector" d="M0-1.506V-8.018A1.506,1.506,0,0,1,1.506-9.524,1.506,1.506,0,0,1,3.012-8.018v6.512A1.506,1.506,0,0,1,1.506,0,1.506,1.506,0,0,1,0-1.506Z" transform="translate(291.873 4.238) rotate(180)" fill="#959a9c"/>
      <path id="Vector-190" data-name="Vector" d="M0-1.506V-8.018A1.506,1.506,0,0,1,1.506-9.524,1.506,1.506,0,0,1,3.012-8.018v6.512A1.506,1.506,0,0,1,1.506,0,1.506,1.506,0,0,1,0-1.506Z" transform="translate(344.029 4.238) rotate(180)" fill="#959a9c"/>
      <path id="Vector-191" data-name="Vector" d="M3.012-1.506A1.506,1.506,0,0,1,1.506,0,1.506,1.506,0,0,1,0-1.506V-9.714A1.506,1.506,0,0,1,1.506-11.22,1.506,1.506,0,0,1,3.012-9.714Z" transform="translate(295.885 3.39) rotate(180)" fill="#959a9c"/>
      <path id="Vector-192" data-name="Vector" d="M3.012-1.506A1.506,1.506,0,0,1,1.506,0,1.506,1.506,0,0,1,0-1.506V-9.714A1.506,1.506,0,0,1,1.506-11.22,1.506,1.506,0,0,1,3.012-9.714Z" transform="translate(348.041 3.39) rotate(180)" fill="#959a9c"/>
      <path id="Vector-193" data-name="Vector" d="M3.012-6.323v4.817A1.506,1.506,0,0,1,1.506,0,1.506,1.506,0,0,1,0-1.506V-6.323A1.506,1.506,0,0,1,1.506-7.829,1.506,1.506,0,0,1,3.012-6.323Z" transform="translate(275.825 5.085) rotate(180)" fill="#959a9c"/>
      <path id="Vector-194" data-name="Vector" d="M0-1.506V-8.018A1.506,1.506,0,0,1,1.506-9.524,1.506,1.506,0,0,1,3.012-8.018v6.512A1.506,1.506,0,0,1,1.506,0,1.506,1.506,0,0,1,0-1.506Z" transform="translate(251.754 4.238) rotate(180)" fill="#959a9c"/>
      <path id="Vector-195" data-name="Vector" d="M3.012-1.506A1.506,1.506,0,0,1,1.506,0,1.506,1.506,0,0,1,0-1.506V-9.714A1.506,1.506,0,0,1,1.506-11.22,1.506,1.506,0,0,1,3.012-9.714Z" transform="translate(255.766 3.39) rotate(180)" fill="#959a9c"/>
      <path id="Vector-196" data-name="Vector" d="M3.012-1.506A1.506,1.506,0,0,1,1.506,0,1.506,1.506,0,0,1,0-1.506v-9.9a1.506,1.506,0,0,1,1.506-1.506,1.506,1.506,0,0,1,1.506,1.506Z" transform="translate(271.813 2.542) rotate(180)" fill="#959a9c"/>
      <path id="Vector-197" data-name="Vector" d="M3.012-1.506A1.506,1.506,0,0,1,1.506,0,1.506,1.506,0,0,1,0-1.506V-13.1A1.506,1.506,0,0,1,1.506-14.61,1.506,1.506,0,0,1,3.012-13.1Z" transform="translate(267.802 1.695) rotate(180)" fill="#959a9c"/>
      <path id="Vector-198" data-name="Vector" d="M3.012-1.506A1.506,1.506,0,0,1,1.506,0,1.506,1.506,0,0,1,0-1.506V-14.8A1.506,1.506,0,0,1,1.506-16.3,1.506,1.506,0,0,1,3.012-14.8Z" transform="translate(259.777 0.848) rotate(180)" fill="#959a9c"/>
      <path id="Vector-199" data-name="Vector" d="M3.012-1.506A1.506,1.506,0,0,1,1.506,0,1.506,1.506,0,0,1,0-1.506V-16.494A1.506,1.506,0,0,1,1.506-18a1.506,1.506,0,0,1,1.506,1.506Z" transform="translate(263.79) rotate(180)" fill="#959a9c"/>
      <path id="Vector-200" data-name="Vector" d="M3.012-6.323v4.817A1.506,1.506,0,0,1,1.506,0,1.506,1.506,0,0,1,0-1.506V-6.323A1.506,1.506,0,0,1,1.506-7.829,1.506,1.506,0,0,1,3.012-6.323Z" transform="translate(247.742 5.085) rotate(180)" fill="#959a9c"/>
      <path id="Vector-201" data-name="Vector" d="M0-1.506V-8.018A1.506,1.506,0,0,1,1.506-9.524,1.506,1.506,0,0,1,3.012-8.018v6.512A1.506,1.506,0,0,1,1.506,0,1.506,1.506,0,0,1,0-1.506Z" transform="translate(231.694 4.238) rotate(180)" fill="#959a9c"/>
      <path id="Vector-202" data-name="Vector" d="M3.012-1.506A1.506,1.506,0,0,1,1.506,0,1.506,1.506,0,0,1,0-1.506V-9.714A1.506,1.506,0,0,1,1.506-11.22,1.506,1.506,0,0,1,3.012-9.714Z" transform="translate(235.706 3.39) rotate(180)" fill="#959a9c"/>
      <path id="Vector-203" data-name="Vector" d="M3.012-1.506A1.506,1.506,0,0,1,1.506,0,1.506,1.506,0,0,1,0-1.506v-9.9a1.506,1.506,0,0,1,1.506-1.506,1.506,1.506,0,0,1,1.506,1.506Z" transform="translate(243.729 2.542) rotate(180)" fill="#959a9c"/>
      <path id="Vector-204" data-name="Vector" d="M3.012-1.506A1.506,1.506,0,0,1,1.506,0,1.506,1.506,0,0,1,0-1.506V-13.1A1.506,1.506,0,0,1,1.506-14.61,1.506,1.506,0,0,1,3.012-13.1Z" transform="translate(239.718 1.695) rotate(180)" fill="#959a9c"/>
      <path id="Vector-205" data-name="Vector" d="M3.012-6.323v4.817A1.506,1.506,0,0,1,1.506,0,1.506,1.506,0,0,1,0-1.506V-6.323A1.506,1.506,0,0,1,1.506-7.829,1.506,1.506,0,0,1,3.012-6.323Z" transform="translate(227.682 5.085) rotate(180)" fill="#959a9c"/>
      <path id="Vector-206" data-name="Vector" d="M0-1.506V-8.018A1.506,1.506,0,0,1,1.506-9.524,1.506,1.506,0,0,1,3.012-8.018v6.512A1.506,1.506,0,0,1,1.506,0,1.506,1.506,0,0,1,0-1.506Z" transform="translate(219.658 4.238) rotate(180)" fill="#959a9c"/>
      <path id="Vector-207" data-name="Vector" d="M3.012-1.506A1.506,1.506,0,0,1,1.506,0,1.506,1.506,0,0,1,0-1.506V-9.714A1.506,1.506,0,0,1,1.506-11.22,1.506,1.506,0,0,1,3.012-9.714Z" transform="translate(223.67 3.39) rotate(180)" fill="#959a9c"/>
      <path id="Vector-208" data-name="Vector" d="M3.012-6.323v4.817A1.506,1.506,0,0,1,1.506,0,1.506,1.506,0,0,1,0-1.506V-6.323A1.506,1.506,0,0,1,1.506-7.829,1.506,1.506,0,0,1,3.012-6.323Z" transform="translate(215.646 5.085) rotate(180)" fill="#959a9c"/>
      <path id="Vector-209" data-name="Vector" d="M3.012-1.506A1.506,1.506,0,0,1,1.506,0,1.506,1.506,0,0,1,0-1.506v-9.9a1.506,1.506,0,0,1,1.506-1.506,1.506,1.506,0,0,1,1.506,1.506Z" transform="translate(211.634 2.542) rotate(180)" fill="#959a9c"/>
      <path id="Vector-210" data-name="Vector" d="M0-1.506V-8.018A1.506,1.506,0,0,1,1.506-9.524,1.506,1.506,0,0,1,3.012-8.018v6.512A1.506,1.506,0,0,1,1.506,0,1.506,1.506,0,0,1,0-1.506Z" transform="translate(279.837 4.238) rotate(180)" fill="#959a9c"/>
      <path id="Vector-211" data-name="Vector" d="M0-1.506V-8.018A1.506,1.506,0,0,1,1.506-9.524,1.506,1.506,0,0,1,3.012-8.018v6.512A1.506,1.506,0,0,1,1.506,0,1.506,1.506,0,0,1,0-1.506Z" transform="translate(331.993 4.238) rotate(180)" fill="#959a9c"/>
      <path id="Vector-212" data-name="Vector" d="M3.012-6.323v4.817A1.506,1.506,0,0,1,1.506,0,1.506,1.506,0,0,1,0-1.506V-6.323A1.506,1.506,0,0,1,1.506-7.829,1.506,1.506,0,0,1,3.012-6.323Z" transform="translate(207.622 5.085) rotate(180)" fill="#959a9c"/>
      <path id="Vector-213" data-name="Vector" d="M3.012-1.506A1.506,1.506,0,0,1,1.506,0,1.506,1.506,0,0,1,0-1.506V-9.714A1.506,1.506,0,0,1,1.506-11.22,1.506,1.506,0,0,1,3.012-9.714Z" transform="translate(187.563 3.39) rotate(180)" fill="#959a9c"/>
      <path id="Vector-214" data-name="Vector" d="M3.012-1.506A1.506,1.506,0,0,1,1.506,0,1.506,1.506,0,0,1,0-1.506v-9.9a1.506,1.506,0,0,1,1.506-1.506,1.506,1.506,0,0,1,1.506,1.506Z" transform="translate(203.61 2.542) rotate(180)" fill="#959a9c"/>
      <path id="Vector-215" data-name="Vector" d="M3.012-1.506A1.506,1.506,0,0,1,1.506,0,1.506,1.506,0,0,1,0-1.506V-13.1A1.506,1.506,0,0,1,1.506-14.61,1.506,1.506,0,0,1,3.012-13.1Z" transform="translate(199.598 1.695) rotate(180)" fill="#959a9c"/>
      <path id="Vector-216" data-name="Vector" d="M3.012-1.506A1.506,1.506,0,0,1,1.506,0,1.506,1.506,0,0,1,0-1.506V-14.8A1.506,1.506,0,0,1,1.506-16.3,1.506,1.506,0,0,1,3.012-14.8Z" transform="translate(191.574 0.848) rotate(180)" fill="#959a9c"/>
      <path id="Vector-217" data-name="Vector" d="M3.012-1.506A1.506,1.506,0,0,1,1.506,0,1.506,1.506,0,0,1,0-1.506V-16.494A1.506,1.506,0,0,1,1.506-18a1.506,1.506,0,0,1,1.506,1.506Z" transform="translate(195.586) rotate(180)" fill="#959a9c"/>
      <path id="Vector-218" data-name="Vector" d="M3.012-6.323v4.817A1.506,1.506,0,0,1,1.506,0,1.506,1.506,0,0,1,0-1.506V-6.323A1.506,1.506,0,0,1,1.506-7.829,1.506,1.506,0,0,1,3.012-6.323Z" transform="translate(287.861 5.085) rotate(180)" fill="#959a9c"/>
      <path id="Vector-219" data-name="Vector" d="M3.012-6.323v4.817A1.506,1.506,0,0,1,1.506,0,1.506,1.506,0,0,1,0-1.506V-6.323A1.506,1.506,0,0,1,1.506-7.829,1.506,1.506,0,0,1,3.012-6.323Z" transform="translate(340.017 5.085) rotate(180)" fill="#959a9c"/>
      <path id="Vector-220" data-name="Vector" d="M3.012-1.506A1.506,1.506,0,0,1,1.506,0,1.506,1.506,0,0,1,0-1.506V-9.714A1.506,1.506,0,0,1,1.506-11.22,1.506,1.506,0,0,1,3.012-9.714Z" transform="translate(283.85 3.39) rotate(180)" fill="#959a9c"/>
      <path id="Vector-221" data-name="Vector" d="M3.012-1.506A1.506,1.506,0,0,1,1.506,0,1.506,1.506,0,0,1,0-1.506V-9.714A1.506,1.506,0,0,1,1.506-11.22,1.506,1.506,0,0,1,3.012-9.714Z" transform="translate(336.005 3.39) rotate(180)" fill="#959a9c"/>
    </g>
    <g id="Group_6-4" data-name="Group 6" transform="translate(630.617)">
      <path id="Vector-222" data-name="Vector" d="M3.012,6.323V1.506A1.506,1.506,0,0,0,0,1.506V6.323a1.506,1.506,0,0,0,3.012,0Z" transform="translate(152.455 5.085)" fill="#959a9c"/>
      <path id="Vector-223" data-name="Vector" d="M0,1.506V8.018a1.506,1.506,0,0,0,3.012,0V1.506A1.506,1.506,0,0,0,0,1.506Z" transform="translate(176.526 4.238)" fill="#959a9c"/>
      <path id="Vector-224" data-name="Vector" d="M3.012,1.506A1.506,1.506,0,0,0,0,1.506V9.714a1.506,1.506,0,0,0,3.012,0Z" transform="translate(172.515 3.39)" fill="#959a9c"/>
      <path id="Vector-225" data-name="Vector" d="M3.012,1.506A1.506,1.506,0,0,0,0,1.506v9.9a1.506,1.506,0,0,0,3.012,0Z" transform="translate(156.467 2.542)" fill="#959a9c"/>
      <path id="Vector-226" data-name="Vector" d="M3.012,1.506A1.506,1.506,0,0,0,0,1.506V13.1a1.506,1.506,0,0,0,3.012,0Z" transform="translate(160.479 1.695)" fill="#959a9c"/>
      <path id="Vector-227" data-name="Vector" d="M3.012,1.506A1.506,1.506,0,1,0,0,1.506V14.8a1.506,1.506,0,1,0,3.012,0Z" transform="translate(168.502 0.848)" fill="#959a9c"/>
      <path id="Vector-228" data-name="Vector" d="M3.012,1.506A1.506,1.506,0,0,0,0,1.506V16.494a1.506,1.506,0,0,0,3.012,0Z" transform="translate(164.49)" fill="#959a9c"/>
      <path id="Vector-229" data-name="Vector" d="M3.012,6.323V1.506A1.506,1.506,0,0,0,0,1.506V6.323a1.506,1.506,0,0,0,3.012,0Z" transform="translate(180.538 5.085)" fill="#959a9c"/>
      <path id="Vector-230" data-name="Vector" d="M0,1.506V8.018a1.506,1.506,0,0,0,3.012,0V1.506A1.506,1.506,0,0,0,0,1.506Z" transform="translate(144.431 4.238)" fill="#959a9c"/>
      <path id="Vector-231" data-name="Vector" d="M3.012,1.506A1.506,1.506,0,0,0,0,1.506V9.714a1.506,1.506,0,0,0,3.012,0Z" transform="translate(140.419 3.39)" fill="#959a9c"/>
      <path id="Vector-232" data-name="Vector" d="M3.012,1.506A1.506,1.506,0,0,0,0,1.506V13.1a1.506,1.506,0,0,0,3.012,0Z" transform="translate(128.383 1.695)" fill="#959a9c"/>
      <path id="Vector-233" data-name="Vector" d="M3.012,1.506A1.506,1.506,0,1,0,0,1.506V14.8a1.506,1.506,0,1,0,3.012,0Z" transform="translate(136.407 0.848)" fill="#959a9c"/>
      <path id="Vector-234" data-name="Vector" d="M3.012,1.506A1.506,1.506,0,0,0,0,1.506V16.494a1.506,1.506,0,0,0,3.012,0Z" transform="translate(132.395)" fill="#959a9c"/>
      <path id="Vector-235" data-name="Vector" d="M0,1.506V8.018a1.506,1.506,0,0,0,3.012,0V1.506A1.506,1.506,0,0,0,0,1.506Z" transform="translate(148.442 4.238)" fill="#959a9c"/>
      <path id="Vector-236" data-name="Vector" d="M3.012-6.323v4.817A1.506,1.506,0,0,1,1.506,0,1.506,1.506,0,0,1,0-1.506V-6.323A1.506,1.506,0,0,1,1.506-7.829,1.506,1.506,0,0,1,3.012-6.323Z" transform="translate(327.981 5.085) rotate(180)" fill="#959a9c"/>
      <path id="Vector-237" data-name="Vector" d="M3.012-6.323v4.817A1.506,1.506,0,0,1,1.506,0,1.506,1.506,0,0,1,0-1.506V-6.323A1.506,1.506,0,0,1,1.506-7.829,1.506,1.506,0,0,1,3.012-6.323Z" transform="translate(380.137 5.085) rotate(180)" fill="#959a9c"/>
      <path id="Vector-238" data-name="Vector" d="M0-1.506V-8.018A1.506,1.506,0,0,1,1.506-9.524,1.506,1.506,0,0,1,3.012-8.018v6.512A1.506,1.506,0,0,1,1.506,0,1.506,1.506,0,0,1,0-1.506Z" transform="translate(303.909 4.238) rotate(180)" fill="#959a9c"/>
      <path id="Vector-239" data-name="Vector" d="M0-1.506V-8.018A1.506,1.506,0,0,1,1.506-9.524,1.506,1.506,0,0,1,3.012-8.018v6.512A1.506,1.506,0,0,1,1.506,0,1.506,1.506,0,0,1,0-1.506Z" transform="translate(356.064 4.238) rotate(180)" fill="#959a9c"/>
      <path id="Vector-240" data-name="Vector" d="M3.012-1.506A1.506,1.506,0,0,1,1.506,0,1.506,1.506,0,0,1,0-1.506V-9.714A1.506,1.506,0,0,1,1.506-11.22,1.506,1.506,0,0,1,3.012-9.714Z" transform="translate(307.921 3.39) rotate(180)" fill="#959a9c"/>
      <path id="Vector-241" data-name="Vector" d="M3.012-1.506A1.506,1.506,0,0,1,1.506,0,1.506,1.506,0,0,1,0-1.506V-9.714A1.506,1.506,0,0,1,1.506-11.22,1.506,1.506,0,0,1,3.012-9.714Z" transform="translate(360.077 3.39) rotate(180)" fill="#959a9c"/>
      <path id="Vector-242" data-name="Vector" d="M3.012-1.506A1.506,1.506,0,0,1,1.506,0,1.506,1.506,0,0,1,0-1.506v-9.9a1.506,1.506,0,0,1,1.506-1.506,1.506,1.506,0,0,1,1.506,1.506Z" transform="translate(323.969 2.542) rotate(180)" fill="#959a9c"/>
      <path id="Vector-243" data-name="Vector" d="M3.012-1.506A1.506,1.506,0,0,1,1.506,0,1.506,1.506,0,0,1,0-1.506v-9.9a1.506,1.506,0,0,1,1.506-1.506,1.506,1.506,0,0,1,1.506,1.506Z" transform="translate(376.125 2.542) rotate(180)" fill="#959a9c"/>
      <path id="Vector-244" data-name="Vector" d="M3.012-1.506A1.506,1.506,0,0,1,1.506,0,1.506,1.506,0,0,1,0-1.506V-13.1A1.506,1.506,0,0,1,1.506-14.61,1.506,1.506,0,0,1,3.012-13.1Z" transform="translate(319.957 1.695) rotate(180)" fill="#959a9c"/>
      <path id="Vector-245" data-name="Vector" d="M3.012-1.506A1.506,1.506,0,0,1,1.506,0,1.506,1.506,0,0,1,0-1.506V-13.1A1.506,1.506,0,0,1,1.506-14.61,1.506,1.506,0,0,1,3.012-13.1Z" transform="translate(372.112 1.695) rotate(180)" fill="#959a9c"/>
      <path id="Vector-246" data-name="Vector" d="M3.012-1.506A1.506,1.506,0,0,1,1.506,0,1.506,1.506,0,0,1,0-1.506V-14.8A1.506,1.506,0,0,1,1.506-16.3,1.506,1.506,0,0,1,3.012-14.8Z" transform="translate(311.933 0.848) rotate(180)" fill="#959a9c"/>
      <path id="Vector-247" data-name="Vector" d="M3.012-1.506A1.506,1.506,0,0,1,1.506,0,1.506,1.506,0,0,1,0-1.506V-14.8A1.506,1.506,0,0,1,1.506-16.3,1.506,1.506,0,0,1,3.012-14.8Z" transform="translate(364.089 0.848) rotate(180)" fill="#959a9c"/>
      <path id="Vector-248" data-name="Vector" d="M3.012-1.506A1.506,1.506,0,0,1,1.506,0,1.506,1.506,0,0,1,0-1.506V-16.494A1.506,1.506,0,0,1,1.506-18a1.506,1.506,0,0,1,1.506,1.506Z" transform="translate(315.945) rotate(180)" fill="#959a9c"/>
      <path id="Vector-249" data-name="Vector" d="M3.012-1.506A1.506,1.506,0,0,1,1.506,0,1.506,1.506,0,0,1,0-1.506V-16.494A1.506,1.506,0,0,1,1.506-18a1.506,1.506,0,0,1,1.506,1.506Z" transform="translate(368.101) rotate(180)" fill="#959a9c"/>
      <path id="Vector-250" data-name="Vector" d="M3.012-6.323v4.817A1.506,1.506,0,0,1,1.506,0,1.506,1.506,0,0,1,0-1.506V-6.323A1.506,1.506,0,0,1,1.506-7.829,1.506,1.506,0,0,1,3.012-6.323Z" transform="translate(299.897 5.085) rotate(180)" fill="#959a9c"/>
      <path id="Vector-251" data-name="Vector" d="M3.012-6.323v4.817A1.506,1.506,0,0,1,1.506,0,1.506,1.506,0,0,1,0-1.506V-6.323A1.506,1.506,0,0,1,1.506-7.829,1.506,1.506,0,0,1,3.012-6.323Z" transform="translate(352.053 5.085) rotate(180)" fill="#959a9c"/>
      <path id="Vector-252" data-name="Vector" d="M0-1.506V-8.018A1.506,1.506,0,0,1,1.506-9.524,1.506,1.506,0,0,1,3.012-8.018v6.512A1.506,1.506,0,0,1,1.506,0,1.506,1.506,0,0,1,0-1.506Z" transform="translate(291.873 4.238) rotate(180)" fill="#959a9c"/>
      <path id="Vector-253" data-name="Vector" d="M0-1.506V-8.018A1.506,1.506,0,0,1,1.506-9.524,1.506,1.506,0,0,1,3.012-8.018v6.512A1.506,1.506,0,0,1,1.506,0,1.506,1.506,0,0,1,0-1.506Z" transform="translate(344.029 4.238) rotate(180)" fill="#959a9c"/>
      <path id="Vector-254" data-name="Vector" d="M3.012-1.506A1.506,1.506,0,0,1,1.506,0,1.506,1.506,0,0,1,0-1.506V-9.714A1.506,1.506,0,0,1,1.506-11.22,1.506,1.506,0,0,1,3.012-9.714Z" transform="translate(295.885 3.39) rotate(180)" fill="#959a9c"/>
      <path id="Vector-255" data-name="Vector" d="M3.012-1.506A1.506,1.506,0,0,1,1.506,0,1.506,1.506,0,0,1,0-1.506V-9.714A1.506,1.506,0,0,1,1.506-11.22,1.506,1.506,0,0,1,3.012-9.714Z" transform="translate(348.041 3.39) rotate(180)" fill="#959a9c"/>
      <path id="Vector-256" data-name="Vector" d="M3.012-6.323v4.817A1.506,1.506,0,0,1,1.506,0,1.506,1.506,0,0,1,0-1.506V-6.323A1.506,1.506,0,0,1,1.506-7.829,1.506,1.506,0,0,1,3.012-6.323Z" transform="translate(275.825 5.085) rotate(180)" fill="#959a9c"/>
      <path id="Vector-257" data-name="Vector" d="M0-1.506V-8.018A1.506,1.506,0,0,1,1.506-9.524,1.506,1.506,0,0,1,3.012-8.018v6.512A1.506,1.506,0,0,1,1.506,0,1.506,1.506,0,0,1,0-1.506Z" transform="translate(251.754 4.238) rotate(180)" fill="#959a9c"/>
      <path id="Vector-258" data-name="Vector" d="M3.012-1.506A1.506,1.506,0,0,1,1.506,0,1.506,1.506,0,0,1,0-1.506V-9.714A1.506,1.506,0,0,1,1.506-11.22,1.506,1.506,0,0,1,3.012-9.714Z" transform="translate(255.766 3.39) rotate(180)" fill="#959a9c"/>
      <path id="Vector-259" data-name="Vector" d="M3.012-1.506A1.506,1.506,0,0,1,1.506,0,1.506,1.506,0,0,1,0-1.506v-9.9a1.506,1.506,0,0,1,1.506-1.506,1.506,1.506,0,0,1,1.506,1.506Z" transform="translate(271.813 2.542) rotate(180)" fill="#959a9c"/>
      <path id="Vector-260" data-name="Vector" d="M3.012-1.506A1.506,1.506,0,0,1,1.506,0,1.506,1.506,0,0,1,0-1.506V-13.1A1.506,1.506,0,0,1,1.506-14.61,1.506,1.506,0,0,1,3.012-13.1Z" transform="translate(267.802 1.695) rotate(180)" fill="#959a9c"/>
      <path id="Vector-261" data-name="Vector" d="M3.012-1.506A1.506,1.506,0,0,1,1.506,0,1.506,1.506,0,0,1,0-1.506V-14.8A1.506,1.506,0,0,1,1.506-16.3,1.506,1.506,0,0,1,3.012-14.8Z" transform="translate(259.777 0.848) rotate(180)" fill="#959a9c"/>
      <path id="Vector-262" data-name="Vector" d="M3.012-1.506A1.506,1.506,0,0,1,1.506,0,1.506,1.506,0,0,1,0-1.506V-16.494A1.506,1.506,0,0,1,1.506-18a1.506,1.506,0,0,1,1.506,1.506Z" transform="translate(263.79) rotate(180)" fill="#959a9c"/>
      <path id="Vector-263" data-name="Vector" d="M3.012-6.323v4.817A1.506,1.506,0,0,1,1.506,0,1.506,1.506,0,0,1,0-1.506V-6.323A1.506,1.506,0,0,1,1.506-7.829,1.506,1.506,0,0,1,3.012-6.323Z" transform="translate(247.742 5.085) rotate(180)" fill="#959a9c"/>
      <path id="Vector-264" data-name="Vector" d="M0-1.506V-8.018A1.506,1.506,0,0,1,1.506-9.524,1.506,1.506,0,0,1,3.012-8.018v6.512A1.506,1.506,0,0,1,1.506,0,1.506,1.506,0,0,1,0-1.506Z" transform="translate(231.694 4.238) rotate(180)" fill="#959a9c"/>
      <path id="Vector-265" data-name="Vector" d="M3.012-1.506A1.506,1.506,0,0,1,1.506,0,1.506,1.506,0,0,1,0-1.506V-9.714A1.506,1.506,0,0,1,1.506-11.22,1.506,1.506,0,0,1,3.012-9.714Z" transform="translate(235.706 3.39) rotate(180)" fill="#959a9c"/>
      <path id="Vector-266" data-name="Vector" d="M3.012-1.506A1.506,1.506,0,0,1,1.506,0,1.506,1.506,0,0,1,0-1.506v-9.9a1.506,1.506,0,0,1,1.506-1.506,1.506,1.506,0,0,1,1.506,1.506Z" transform="translate(243.729 2.542) rotate(180)" fill="#959a9c"/>
      <path id="Vector-267" data-name="Vector" d="M3.012-1.506A1.506,1.506,0,0,1,1.506,0,1.506,1.506,0,0,1,0-1.506V-13.1A1.506,1.506,0,0,1,1.506-14.61,1.506,1.506,0,0,1,3.012-13.1Z" transform="translate(239.718 1.695) rotate(180)" fill="#959a9c"/>
      <path id="Vector-268" data-name="Vector" d="M3.012-6.323v4.817A1.506,1.506,0,0,1,1.506,0,1.506,1.506,0,0,1,0-1.506V-6.323A1.506,1.506,0,0,1,1.506-7.829,1.506,1.506,0,0,1,3.012-6.323Z" transform="translate(227.682 5.085) rotate(180)" fill="#959a9c"/>
      <path id="Vector-269" data-name="Vector" d="M0-1.506V-8.018A1.506,1.506,0,0,1,1.506-9.524,1.506,1.506,0,0,1,3.012-8.018v6.512A1.506,1.506,0,0,1,1.506,0,1.506,1.506,0,0,1,0-1.506Z" transform="translate(219.658 4.238) rotate(180)" fill="#959a9c"/>
      <path id="Vector-270" data-name="Vector" d="M3.012-1.506A1.506,1.506,0,0,1,1.506,0,1.506,1.506,0,0,1,0-1.506V-9.714A1.506,1.506,0,0,1,1.506-11.22,1.506,1.506,0,0,1,3.012-9.714Z" transform="translate(223.67 3.39) rotate(180)" fill="#959a9c"/>
      <path id="Vector-271" data-name="Vector" d="M3.012-6.323v4.817A1.506,1.506,0,0,1,1.506,0,1.506,1.506,0,0,1,0-1.506V-6.323A1.506,1.506,0,0,1,1.506-7.829,1.506,1.506,0,0,1,3.012-6.323Z" transform="translate(215.646 5.085) rotate(180)" fill="#959a9c"/>
      <path id="Vector-272" data-name="Vector" d="M3.012-1.506A1.506,1.506,0,0,1,1.506,0,1.506,1.506,0,0,1,0-1.506v-9.9a1.506,1.506,0,0,1,1.506-1.506,1.506,1.506,0,0,1,1.506,1.506Z" transform="translate(211.634 2.542) rotate(180)" fill="#959a9c"/>
      <path id="Vector-273" data-name="Vector" d="M0-1.506V-8.018A1.506,1.506,0,0,1,1.506-9.524,1.506,1.506,0,0,1,3.012-8.018v6.512A1.506,1.506,0,0,1,1.506,0,1.506,1.506,0,0,1,0-1.506Z" transform="translate(279.837 4.238) rotate(180)" fill="#959a9c"/>
      <path id="Vector-274" data-name="Vector" d="M0-1.506V-8.018A1.506,1.506,0,0,1,1.506-9.524,1.506,1.506,0,0,1,3.012-8.018v6.512A1.506,1.506,0,0,1,1.506,0,1.506,1.506,0,0,1,0-1.506Z" transform="translate(331.993 4.238) rotate(180)" fill="#959a9c"/>
      <path id="Vector-275" data-name="Vector" d="M3.012-6.323v4.817A1.506,1.506,0,0,1,1.506,0,1.506,1.506,0,0,1,0-1.506V-6.323A1.506,1.506,0,0,1,1.506-7.829,1.506,1.506,0,0,1,3.012-6.323Z" transform="translate(207.622 5.085) rotate(180)" fill="#959a9c"/>
      <path id="Vector-276" data-name="Vector" d="M3.012-1.506A1.506,1.506,0,0,1,1.506,0,1.506,1.506,0,0,1,0-1.506V-9.714A1.506,1.506,0,0,1,1.506-11.22,1.506,1.506,0,0,1,3.012-9.714Z" transform="translate(187.563 3.39) rotate(180)" fill="#959a9c"/>
      <path id="Vector-277" data-name="Vector" d="M3.012-1.506A1.506,1.506,0,0,1,1.506,0,1.506,1.506,0,0,1,0-1.506v-9.9a1.506,1.506,0,0,1,1.506-1.506,1.506,1.506,0,0,1,1.506,1.506Z" transform="translate(203.61 2.542) rotate(180)" fill="#959a9c"/>
      <path id="Vector-278" data-name="Vector" d="M3.012-1.506A1.506,1.506,0,0,1,1.506,0,1.506,1.506,0,0,1,0-1.506V-13.1A1.506,1.506,0,0,1,1.506-14.61,1.506,1.506,0,0,1,3.012-13.1Z" transform="translate(199.598 1.695) rotate(180)" fill="#959a9c"/>
      <path id="Vector-279" data-name="Vector" d="M3.012-1.506A1.506,1.506,0,0,1,1.506,0,1.506,1.506,0,0,1,0-1.506V-14.8A1.506,1.506,0,0,1,1.506-16.3,1.506,1.506,0,0,1,3.012-14.8Z" transform="translate(191.574 0.848) rotate(180)" fill="#959a9c"/>
      <path id="Vector-280" data-name="Vector" d="M3.012-1.506A1.506,1.506,0,0,1,1.506,0,1.506,1.506,0,0,1,0-1.506V-16.494A1.506,1.506,0,0,1,1.506-18a1.506,1.506,0,0,1,1.506,1.506Z" transform="translate(195.586) rotate(180)" fill="#959a9c"/>
      <path id="Vector-281" data-name="Vector" d="M3.012-6.323v4.817A1.506,1.506,0,0,1,1.506,0,1.506,1.506,0,0,1,0-1.506V-6.323A1.506,1.506,0,0,1,1.506-7.829,1.506,1.506,0,0,1,3.012-6.323Z" transform="translate(287.861 5.085) rotate(180)" fill="#959a9c"/>
      <path id="Vector-282" data-name="Vector" d="M3.012-6.323v4.817A1.506,1.506,0,0,1,1.506,0,1.506,1.506,0,0,1,0-1.506V-6.323A1.506,1.506,0,0,1,1.506-7.829,1.506,1.506,0,0,1,3.012-6.323Z" transform="translate(340.017 5.085) rotate(180)" fill="#959a9c"/>
      <path id="Vector-283" data-name="Vector" d="M3.012-1.506A1.506,1.506,0,0,1,1.506,0,1.506,1.506,0,0,1,0-1.506V-9.714A1.506,1.506,0,0,1,1.506-11.22,1.506,1.506,0,0,1,3.012-9.714Z" transform="translate(283.85 3.39) rotate(180)" fill="#959a9c"/>
      <path id="Vector-284" data-name="Vector" d="M3.012-1.506A1.506,1.506,0,0,1,1.506,0,1.506,1.506,0,0,1,0-1.506V-9.714A1.506,1.506,0,0,1,1.506-11.22,1.506,1.506,0,0,1,3.012-9.714Z" transform="translate(336.005 3.39) rotate(180)" fill="#959a9c"/>
    </g>
    <g id="Group_6-5" data-name="Group 6" transform="translate(883.617)">
      <path id="Vector-285" data-name="Vector" d="M3.012,6.323V1.506A1.506,1.506,0,0,0,0,1.506V6.323a1.506,1.506,0,0,0,3.012,0Z" transform="translate(152.455 5.085)" fill="#959a9c"/>
      <path id="Vector-286" data-name="Vector" d="M0,1.506V8.018a1.506,1.506,0,0,0,3.012,0V1.506A1.506,1.506,0,0,0,0,1.506Z" transform="translate(176.526 4.238)" fill="#959a9c"/>
      <path id="Vector-287" data-name="Vector" d="M3.012,1.506A1.506,1.506,0,0,0,0,1.506V9.714a1.506,1.506,0,0,0,3.012,0Z" transform="translate(172.515 3.39)" fill="#959a9c"/>
      <path id="Vector-288" data-name="Vector" d="M3.012,1.506A1.506,1.506,0,0,0,0,1.506v9.9a1.506,1.506,0,0,0,3.012,0Z" transform="translate(156.467 2.542)" fill="#959a9c"/>
      <path id="Vector-289" data-name="Vector" d="M3.012,1.506A1.506,1.506,0,0,0,0,1.506V13.1a1.506,1.506,0,0,0,3.012,0Z" transform="translate(160.479 1.695)" fill="#959a9c"/>
      <path id="Vector-290" data-name="Vector" d="M3.012,1.506A1.506,1.506,0,1,0,0,1.506V14.8a1.506,1.506,0,1,0,3.012,0Z" transform="translate(168.502 0.848)" fill="#959a9c"/>
      <path id="Vector-291" data-name="Vector" d="M3.012,1.506A1.506,1.506,0,0,0,0,1.506V16.494a1.506,1.506,0,0,0,3.012,0Z" transform="translate(164.49)" fill="#959a9c"/>
      <path id="Vector-292" data-name="Vector" d="M3.012,6.323V1.506A1.506,1.506,0,0,0,0,1.506V6.323a1.506,1.506,0,0,0,3.012,0Z" transform="translate(180.538 5.085)" fill="#959a9c"/>
      <path id="Vector-293" data-name="Vector" d="M0,1.506V8.018a1.506,1.506,0,0,0,3.012,0V1.506A1.506,1.506,0,0,0,0,1.506Z" transform="translate(144.431 4.238)" fill="#959a9c"/>
      <path id="Vector-294" data-name="Vector" d="M3.012,1.506A1.506,1.506,0,0,0,0,1.506V9.714a1.506,1.506,0,0,0,3.012,0Z" transform="translate(140.419 3.39)" fill="#959a9c"/>
      <path id="Vector-295" data-name="Vector" d="M3.012,1.506A1.506,1.506,0,0,0,0,1.506V13.1a1.506,1.506,0,0,0,3.012,0Z" transform="translate(128.383 1.695)" fill="#959a9c"/>
      <path id="Vector-296" data-name="Vector" d="M3.012,1.506A1.506,1.506,0,1,0,0,1.506V14.8a1.506,1.506,0,1,0,3.012,0Z" transform="translate(136.407 0.848)" fill="#959a9c"/>
      <path id="Vector-297" data-name="Vector" d="M3.012,1.506A1.506,1.506,0,0,0,0,1.506V16.494a1.506,1.506,0,0,0,3.012,0Z" transform="translate(132.395)" fill="#959a9c"/>
      <path id="Vector-298" data-name="Vector" d="M0,1.506V8.018a1.506,1.506,0,0,0,3.012,0V1.506A1.506,1.506,0,0,0,0,1.506Z" transform="translate(148.442 4.238)" fill="#959a9c"/>
      <path id="Vector-299" data-name="Vector" d="M3.012-6.323v4.817A1.506,1.506,0,0,1,1.506,0,1.506,1.506,0,0,1,0-1.506V-6.323A1.506,1.506,0,0,1,1.506-7.829,1.506,1.506,0,0,1,3.012-6.323Z" transform="translate(327.981 5.085) rotate(180)" fill="#959a9c"/>
      <path id="Vector-300" data-name="Vector" d="M3.012-6.323v4.817A1.506,1.506,0,0,1,1.506,0,1.506,1.506,0,0,1,0-1.506V-6.323A1.506,1.506,0,0,1,1.506-7.829,1.506,1.506,0,0,1,3.012-6.323Z" transform="translate(380.137 5.085) rotate(180)" fill="#959a9c"/>
      <path id="Vector-301" data-name="Vector" d="M0-1.506V-8.018A1.506,1.506,0,0,1,1.506-9.524,1.506,1.506,0,0,1,3.012-8.018v6.512A1.506,1.506,0,0,1,1.506,0,1.506,1.506,0,0,1,0-1.506Z" transform="translate(303.909 4.238) rotate(180)" fill="#959a9c"/>
      <path id="Vector-302" data-name="Vector" d="M0-1.506V-8.018A1.506,1.506,0,0,1,1.506-9.524,1.506,1.506,0,0,1,3.012-8.018v6.512A1.506,1.506,0,0,1,1.506,0,1.506,1.506,0,0,1,0-1.506Z" transform="translate(356.064 4.238) rotate(180)" fill="#959a9c"/>
      <path id="Vector-303" data-name="Vector" d="M3.012-1.506A1.506,1.506,0,0,1,1.506,0,1.506,1.506,0,0,1,0-1.506V-9.714A1.506,1.506,0,0,1,1.506-11.22,1.506,1.506,0,0,1,3.012-9.714Z" transform="translate(307.921 3.39) rotate(180)" fill="#959a9c"/>
      <path id="Vector-304" data-name="Vector" d="M3.012-1.506A1.506,1.506,0,0,1,1.506,0,1.506,1.506,0,0,1,0-1.506V-9.714A1.506,1.506,0,0,1,1.506-11.22,1.506,1.506,0,0,1,3.012-9.714Z" transform="translate(360.077 3.39) rotate(180)" fill="#959a9c"/>
      <path id="Vector-305" data-name="Vector" d="M3.012-1.506A1.506,1.506,0,0,1,1.506,0,1.506,1.506,0,0,1,0-1.506v-9.9a1.506,1.506,0,0,1,1.506-1.506,1.506,1.506,0,0,1,1.506,1.506Z" transform="translate(323.969 2.542) rotate(180)" fill="#959a9c"/>
      <path id="Vector-306" data-name="Vector" d="M3.012-1.506A1.506,1.506,0,0,1,1.506,0,1.506,1.506,0,0,1,0-1.506v-9.9a1.506,1.506,0,0,1,1.506-1.506,1.506,1.506,0,0,1,1.506,1.506Z" transform="translate(376.125 2.542) rotate(180)" fill="#959a9c"/>
      <path id="Vector-307" data-name="Vector" d="M3.012-1.506A1.506,1.506,0,0,1,1.506,0,1.506,1.506,0,0,1,0-1.506V-13.1A1.506,1.506,0,0,1,1.506-14.61,1.506,1.506,0,0,1,3.012-13.1Z" transform="translate(319.957 1.695) rotate(180)" fill="#959a9c"/>
      <path id="Vector-308" data-name="Vector" d="M3.012-1.506A1.506,1.506,0,0,1,1.506,0,1.506,1.506,0,0,1,0-1.506V-13.1A1.506,1.506,0,0,1,1.506-14.61,1.506,1.506,0,0,1,3.012-13.1Z" transform="translate(372.112 1.695) rotate(180)" fill="#959a9c"/>
      <path id="Vector-309" data-name="Vector" d="M3.012-1.506A1.506,1.506,0,0,1,1.506,0,1.506,1.506,0,0,1,0-1.506V-14.8A1.506,1.506,0,0,1,1.506-16.3,1.506,1.506,0,0,1,3.012-14.8Z" transform="translate(311.933 0.848) rotate(180)" fill="#959a9c"/>
      <path id="Vector-310" data-name="Vector" d="M3.012-1.506A1.506,1.506,0,0,1,1.506,0,1.506,1.506,0,0,1,0-1.506V-14.8A1.506,1.506,0,0,1,1.506-16.3,1.506,1.506,0,0,1,3.012-14.8Z" transform="translate(364.089 0.848) rotate(180)" fill="#959a9c"/>
      <path id="Vector-311" data-name="Vector" d="M3.012-1.506A1.506,1.506,0,0,1,1.506,0,1.506,1.506,0,0,1,0-1.506V-16.494A1.506,1.506,0,0,1,1.506-18a1.506,1.506,0,0,1,1.506,1.506Z" transform="translate(315.945) rotate(180)" fill="#959a9c"/>
      <path id="Vector-312" data-name="Vector" d="M3.012-1.506A1.506,1.506,0,0,1,1.506,0,1.506,1.506,0,0,1,0-1.506V-16.494A1.506,1.506,0,0,1,1.506-18a1.506,1.506,0,0,1,1.506,1.506Z" transform="translate(368.101) rotate(180)" fill="#959a9c"/>
      <path id="Vector-313" data-name="Vector" d="M3.012-6.323v4.817A1.506,1.506,0,0,1,1.506,0,1.506,1.506,0,0,1,0-1.506V-6.323A1.506,1.506,0,0,1,1.506-7.829,1.506,1.506,0,0,1,3.012-6.323Z" transform="translate(299.897 5.085) rotate(180)" fill="#959a9c"/>
      <path id="Vector-314" data-name="Vector" d="M3.012-6.323v4.817A1.506,1.506,0,0,1,1.506,0,1.506,1.506,0,0,1,0-1.506V-6.323A1.506,1.506,0,0,1,1.506-7.829,1.506,1.506,0,0,1,3.012-6.323Z" transform="translate(352.053 5.085) rotate(180)" fill="#959a9c"/>
      <path id="Vector-315" data-name="Vector" d="M0-1.506V-8.018A1.506,1.506,0,0,1,1.506-9.524,1.506,1.506,0,0,1,3.012-8.018v6.512A1.506,1.506,0,0,1,1.506,0,1.506,1.506,0,0,1,0-1.506Z" transform="translate(291.873 4.238) rotate(180)" fill="#959a9c"/>
      <path id="Vector-316" data-name="Vector" d="M0-1.506V-8.018A1.506,1.506,0,0,1,1.506-9.524,1.506,1.506,0,0,1,3.012-8.018v6.512A1.506,1.506,0,0,1,1.506,0,1.506,1.506,0,0,1,0-1.506Z" transform="translate(344.029 4.238) rotate(180)" fill="#959a9c"/>
      <path id="Vector-317" data-name="Vector" d="M3.012-1.506A1.506,1.506,0,0,1,1.506,0,1.506,1.506,0,0,1,0-1.506V-9.714A1.506,1.506,0,0,1,1.506-11.22,1.506,1.506,0,0,1,3.012-9.714Z" transform="translate(295.885 3.39) rotate(180)" fill="#959a9c"/>
      <path id="Vector-318" data-name="Vector" d="M3.012-1.506A1.506,1.506,0,0,1,1.506,0,1.506,1.506,0,0,1,0-1.506V-9.714A1.506,1.506,0,0,1,1.506-11.22,1.506,1.506,0,0,1,3.012-9.714Z" transform="translate(348.041 3.39) rotate(180)" fill="#959a9c"/>
      <path id="Vector-319" data-name="Vector" d="M3.012-6.323v4.817A1.506,1.506,0,0,1,1.506,0,1.506,1.506,0,0,1,0-1.506V-6.323A1.506,1.506,0,0,1,1.506-7.829,1.506,1.506,0,0,1,3.012-6.323Z" transform="translate(275.825 5.085) rotate(180)" fill="#959a9c"/>
      <path id="Vector-320" data-name="Vector" d="M0-1.506V-8.018A1.506,1.506,0,0,1,1.506-9.524,1.506,1.506,0,0,1,3.012-8.018v6.512A1.506,1.506,0,0,1,1.506,0,1.506,1.506,0,0,1,0-1.506Z" transform="translate(251.754 4.238) rotate(180)" fill="#959a9c"/>
      <path id="Vector-321" data-name="Vector" d="M3.012-1.506A1.506,1.506,0,0,1,1.506,0,1.506,1.506,0,0,1,0-1.506V-9.714A1.506,1.506,0,0,1,1.506-11.22,1.506,1.506,0,0,1,3.012-9.714Z" transform="translate(255.766 3.39) rotate(180)" fill="#959a9c"/>
      <path id="Vector-322" data-name="Vector" d="M3.012-1.506A1.506,1.506,0,0,1,1.506,0,1.506,1.506,0,0,1,0-1.506v-9.9a1.506,1.506,0,0,1,1.506-1.506,1.506,1.506,0,0,1,1.506,1.506Z" transform="translate(271.813 2.542) rotate(180)" fill="#959a9c"/>
      <path id="Vector-323" data-name="Vector" d="M3.012-1.506A1.506,1.506,0,0,1,1.506,0,1.506,1.506,0,0,1,0-1.506V-13.1A1.506,1.506,0,0,1,1.506-14.61,1.506,1.506,0,0,1,3.012-13.1Z" transform="translate(267.802 1.695) rotate(180)" fill="#959a9c"/>
      <path id="Vector-324" data-name="Vector" d="M3.012-1.506A1.506,1.506,0,0,1,1.506,0,1.506,1.506,0,0,1,0-1.506V-14.8A1.506,1.506,0,0,1,1.506-16.3,1.506,1.506,0,0,1,3.012-14.8Z" transform="translate(259.777 0.848) rotate(180)" fill="#959a9c"/>
      <path id="Vector-325" data-name="Vector" d="M3.012-1.506A1.506,1.506,0,0,1,1.506,0,1.506,1.506,0,0,1,0-1.506V-16.494A1.506,1.506,0,0,1,1.506-18a1.506,1.506,0,0,1,1.506,1.506Z" transform="translate(263.79) rotate(180)" fill="#959a9c"/>
      <path id="Vector-326" data-name="Vector" d="M3.012-6.323v4.817A1.506,1.506,0,0,1,1.506,0,1.506,1.506,0,0,1,0-1.506V-6.323A1.506,1.506,0,0,1,1.506-7.829,1.506,1.506,0,0,1,3.012-6.323Z" transform="translate(247.742 5.085) rotate(180)" fill="#959a9c"/>
      <path id="Vector-327" data-name="Vector" d="M0-1.506V-8.018A1.506,1.506,0,0,1,1.506-9.524,1.506,1.506,0,0,1,3.012-8.018v6.512A1.506,1.506,0,0,1,1.506,0,1.506,1.506,0,0,1,0-1.506Z" transform="translate(231.694 4.238) rotate(180)" fill="#959a9c"/>
      <path id="Vector-328" data-name="Vector" d="M3.012-1.506A1.506,1.506,0,0,1,1.506,0,1.506,1.506,0,0,1,0-1.506V-9.714A1.506,1.506,0,0,1,1.506-11.22,1.506,1.506,0,0,1,3.012-9.714Z" transform="translate(235.706 3.39) rotate(180)" fill="#959a9c"/>
      <path id="Vector-329" data-name="Vector" d="M3.012-1.506A1.506,1.506,0,0,1,1.506,0,1.506,1.506,0,0,1,0-1.506v-9.9a1.506,1.506,0,0,1,1.506-1.506,1.506,1.506,0,0,1,1.506,1.506Z" transform="translate(243.729 2.542) rotate(180)" fill="#959a9c"/>
      <path id="Vector-330" data-name="Vector" d="M3.012-1.506A1.506,1.506,0,0,1,1.506,0,1.506,1.506,0,0,1,0-1.506V-13.1A1.506,1.506,0,0,1,1.506-14.61,1.506,1.506,0,0,1,3.012-13.1Z" transform="translate(239.718 1.695) rotate(180)" fill="#959a9c"/>
      <path id="Vector-331" data-name="Vector" d="M3.012-6.323v4.817A1.506,1.506,0,0,1,1.506,0,1.506,1.506,0,0,1,0-1.506V-6.323A1.506,1.506,0,0,1,1.506-7.829,1.506,1.506,0,0,1,3.012-6.323Z" transform="translate(227.682 5.085) rotate(180)" fill="#959a9c"/>
      <path id="Vector-332" data-name="Vector" d="M0-1.506V-8.018A1.506,1.506,0,0,1,1.506-9.524,1.506,1.506,0,0,1,3.012-8.018v6.512A1.506,1.506,0,0,1,1.506,0,1.506,1.506,0,0,1,0-1.506Z" transform="translate(219.658 4.238) rotate(180)" fill="#959a9c"/>
      <path id="Vector-333" data-name="Vector" d="M3.012-1.506A1.506,1.506,0,0,1,1.506,0,1.506,1.506,0,0,1,0-1.506V-9.714A1.506,1.506,0,0,1,1.506-11.22,1.506,1.506,0,0,1,3.012-9.714Z" transform="translate(223.67 3.39) rotate(180)" fill="#959a9c"/>
      <path id="Vector-334" data-name="Vector" d="M3.012-6.323v4.817A1.506,1.506,0,0,1,1.506,0,1.506,1.506,0,0,1,0-1.506V-6.323A1.506,1.506,0,0,1,1.506-7.829,1.506,1.506,0,0,1,3.012-6.323Z" transform="translate(215.646 5.085) rotate(180)" fill="#959a9c"/>
      <path id="Vector-335" data-name="Vector" d="M3.012-1.506A1.506,1.506,0,0,1,1.506,0,1.506,1.506,0,0,1,0-1.506v-9.9a1.506,1.506,0,0,1,1.506-1.506,1.506,1.506,0,0,1,1.506,1.506Z" transform="translate(211.634 2.542) rotate(180)" fill="#959a9c"/>
      <path id="Vector-336" data-name="Vector" d="M0-1.506V-8.018A1.506,1.506,0,0,1,1.506-9.524,1.506,1.506,0,0,1,3.012-8.018v6.512A1.506,1.506,0,0,1,1.506,0,1.506,1.506,0,0,1,0-1.506Z" transform="translate(279.837 4.238) rotate(180)" fill="#959a9c"/>
      <path id="Vector-337" data-name="Vector" d="M0-1.506V-8.018A1.506,1.506,0,0,1,1.506-9.524,1.506,1.506,0,0,1,3.012-8.018v6.512A1.506,1.506,0,0,1,1.506,0,1.506,1.506,0,0,1,0-1.506Z" transform="translate(331.993 4.238) rotate(180)" fill="#959a9c"/>
      <path id="Vector-338" data-name="Vector" d="M3.012-6.323v4.817A1.506,1.506,0,0,1,1.506,0,1.506,1.506,0,0,1,0-1.506V-6.323A1.506,1.506,0,0,1,1.506-7.829,1.506,1.506,0,0,1,3.012-6.323Z" transform="translate(207.622 5.085) rotate(180)" fill="#959a9c"/>
      <path id="Vector-339" data-name="Vector" d="M3.012-1.506A1.506,1.506,0,0,1,1.506,0,1.506,1.506,0,0,1,0-1.506V-9.714A1.506,1.506,0,0,1,1.506-11.22,1.506,1.506,0,0,1,3.012-9.714Z" transform="translate(187.563 3.39) rotate(180)" fill="#959a9c"/>
      <path id="Vector-340" data-name="Vector" d="M3.012-1.506A1.506,1.506,0,0,1,1.506,0,1.506,1.506,0,0,1,0-1.506v-9.9a1.506,1.506,0,0,1,1.506-1.506,1.506,1.506,0,0,1,1.506,1.506Z" transform="translate(203.61 2.542) rotate(180)" fill="#959a9c"/>
      <path id="Vector-341" data-name="Vector" d="M3.012-1.506A1.506,1.506,0,0,1,1.506,0,1.506,1.506,0,0,1,0-1.506V-13.1A1.506,1.506,0,0,1,1.506-14.61,1.506,1.506,0,0,1,3.012-13.1Z" transform="translate(199.598 1.695) rotate(180)" fill="#959a9c"/>
      <path id="Vector-342" data-name="Vector" d="M3.012-1.506A1.506,1.506,0,0,1,1.506,0,1.506,1.506,0,0,1,0-1.506V-14.8A1.506,1.506,0,0,1,1.506-16.3,1.506,1.506,0,0,1,3.012-14.8Z" transform="translate(191.574 0.848) rotate(180)" fill="#959a9c"/>
      <path id="Vector-343" data-name="Vector" d="M3.012-1.506A1.506,1.506,0,0,1,1.506,0,1.506,1.506,0,0,1,0-1.506V-16.494A1.506,1.506,0,0,1,1.506-18a1.506,1.506,0,0,1,1.506,1.506Z" transform="translate(195.586) rotate(180)" fill="#959a9c"/>
      <path id="Vector-344" data-name="Vector" d="M3.012-6.323v4.817A1.506,1.506,0,0,1,1.506,0,1.506,1.506,0,0,1,0-1.506V-6.323A1.506,1.506,0,0,1,1.506-7.829,1.506,1.506,0,0,1,3.012-6.323Z" transform="translate(287.861 5.085) rotate(180)" fill="#959a9c"/>
      <path id="Vector-345" data-name="Vector" d="M3.012-6.323v4.817A1.506,1.506,0,0,1,1.506,0,1.506,1.506,0,0,1,0-1.506V-6.323A1.506,1.506,0,0,1,1.506-7.829,1.506,1.506,0,0,1,3.012-6.323Z" transform="translate(340.017 5.085) rotate(180)" fill="#959a9c"/>
      <path id="Vector-346" data-name="Vector" d="M3.012-1.506A1.506,1.506,0,0,1,1.506,0,1.506,1.506,0,0,1,0-1.506V-9.714A1.506,1.506,0,0,1,1.506-11.22,1.506,1.506,0,0,1,3.012-9.714Z" transform="translate(283.85 3.39) rotate(180)" fill="#959a9c"/>
      <path id="Vector-347" data-name="Vector" d="M3.012-1.506A1.506,1.506,0,0,1,1.506,0,1.506,1.506,0,0,1,0-1.506V-9.714A1.506,1.506,0,0,1,1.506-11.22,1.506,1.506,0,0,1,3.012-9.714Z" transform="translate(336.005 3.39) rotate(180)" fill="#959a9c"/>
    </g>
  </g>
</svg>
