<svg id="Group_132" data-name="Group 132" xmlns="http://www.w3.org/2000/svg" width="19.06" height="18" viewBox="0 0 19.06 18">
  <path id="Vector" d="M3.012,1.506A1.506,1.506,0,0,0,0,1.506V9.714a1.506,1.506,0,0,0,3.012,0Z" transform="translate(16.048 3.39)" fill="#fff"/>
  <path id="Vector-2" data-name="Vector" d="M3.012,1.506A1.506,1.506,0,0,0,0,1.506V9.714a1.506,1.506,0,0,0,3.012,0Z" transform="translate(0 3.39)" fill="#fff"/>
  <path id="Vector-3" data-name="Vector" d="M3.012,1.506A1.506,1.506,0,0,0,0,1.506V13.1a1.506,1.506,0,0,0,3.012,0Z" transform="translate(4.012 1.695)" fill="#fff"/>
  <path id="Vector-4" data-name="Vector" d="M3.012,1.506A1.506,1.506,0,0,0,0,1.506V13.1a1.506,1.506,0,0,0,3.012,0Z" transform="translate(12 1.695)" fill="#fff"/>
  <path id="Vector-5" data-name="Vector" d="M3.012,1.506A1.506,1.506,0,0,0,0,1.506V16.494a1.506,1.506,0,0,0,3.012,0Z" transform="translate(8.023)" fill="#fff"/>
</svg>
